<?xml version="1.0" encoding="UTF-8"?>
<svg width="264px" height="179px" viewBox="0 0 264 179" version="1.1" xmlns="http://www.w3.org/2000/svg" xmlns:xlink="http://www.w3.org/1999/xlink">
    <title>no-store</title>
    <defs>
        <polygon id="path-1" points="0 0 262 0 262 174 0 174"></polygon>
    </defs>
    <g id="product-designerv2" stroke="none" stroke-width="1" fill="none" fill-rule="evenodd" opacity="0.7">
        <g id="product-designer-White-proof-approval" transform="translate(-553.000000, -281.000000)">
            <g id="Group-68" transform="translate(399.000000, 225.000000)">
                <g id="no-store" transform="translate(154.000000, 56.000000)">
                    <g id="Group-5">
                        <mask id="mask-2" fill="white">
                            <use xlink:href="#path-1"></use>
                        </mask>
                        <g id="Clip-2"></g>
                        <path d="M29.2887466,172.731606 C7.18792896,171.941118 -2.00589564,137.654062 0.339765263,120.23991 C1.97783163,108.079422 7.88762198,97.1621413 11.6171384,85.6093647 C16.0267302,71.9482582 14.085409,59.0389593 13.7584497,44.9787955 C13.3124226,25.7978959 29.072136,12.0656945 45.8072781,5.93219767 C63.1467501,-0.423027963 88.8236857,-1.66541724 102.582408,12.5639033 C111.947341,22.2494186 118.229048,34.1023734 128.681121,42.8282445 C144.369448,55.9257677 164.689427,63.1575574 184.820587,65.681833 C200.870205,67.6942803 217.151691,69.707 231.474145,78.0596912 C249.650633,88.6601781 260.928824,106.616666 261.973186,127.391071 C262.70612,141.97287 248.242528,161.93554 239.54214,172.945435 C237.650407,175.339234 240.518386,172.938081 29.2887466,172.731606" id="Fill-1" fill="#F1E2C6" mask="url(#mask-2)"></path>
                        <path d="M71.3752272,0 C69.8287095,0.00708224536 68.2819193,0.0656469666 66.743848,0.173787405 C66.1621328,4.23300357 64.3017341,8.14158583 61.1721881,11.2444265 C53.522974,18.8270597 41.1347565,18.7753048 33.5492994,11.1305658 C33.4016228,10.9818386 33.2558534,10.8284808 33.1136261,10.6734885 C31.7613767,11.4378263 30.4314695,12.2397543 29.124722,13.0770937 C29.4963658,13.5142861 29.8898069,13.9397656 30.3001408,14.3521702 C39.6577176,23.7879002 54.9539661,23.8549091 64.3941001,14.4954495 C68.4704658,10.4539389 70.7997788,5.30541896 71.3752272,0" id="Fill-3" fill="#FFFFFE" mask="url(#mask-2)"></path>
                        <path d="M129.216244,25.1430606 C130.685109,29.7130156 133.586601,33.7340966 136.805244,37.3193471 C147.006648,48.682265 160.919586,56.3291833 175.689975,59.915251 C186.921846,62.6421878 209.768403,66.4121215 218.351359,55.9870563 C230.698707,40.9890398 198.699739,32.424426 189.969652,29.0333925 C182.846843,26.2661413 177.717395,20.9544573 173.435862,14.7741086 C167.901803,6.78560824 158.261679,-0.307532885 147.966819,0.010350974 C136.005555,0.379717309 125.688353,12.0409067 128.904271,24.0834477 C128.999634,24.4400116 129.103716,24.7933066 129.216244,25.1430606" id="Fill-4" fill="#F1E2C6" mask="url(#mask-2)"></path>
                    </g>
                    <path d="M161.997848,39.53604 C160.359785,39.53604 158.856291,38.928043 157.71002,37.925809 C156.336503,36.7238743 155.46396,34.9604247 155.46396,32.9978481 C155.46396,32.0045088 155.686902,31.0579386 156.090607,30.2132273 C157.134732,28.000164 159.389974,26.46396 161.997848,26.46396 C165.603365,26.46396 168.53604,29.3966348 168.53604,32.9978481 C168.53604,36.6030783 165.603365,39.53604 161.997848,39.53604 Z M161.997848,26 C159.450229,26 157.213637,27.3735167 155.993052,29.415285 C155.362101,30.464001 155,31.6888898 155,32.9978481 C155,35.3457668 156.164921,37.4291394 157.942143,38.7007972 C159.088414,39.5173898 160.484885,40 161.997848,40 C165.85873,40 169,36.8584428 169,32.9978481 C169,29.1415572 165.85873,26 161.997848,26 L161.997848,26 Z" id="Fill-6" fill="#FFFFFE"></path>
                    <path d="M200,32.4217982 C200,32.4217982 204.926055,27.0371597 209.16283,25.7307884 C213.399887,24.4247029 215.070143,24.9364507 216.5433,26.7314254 C218.016175,28.5261144 215.654662,31.5874578 213.325339,32.2329287 C210.995734,32.8783995 206.925562,33.483582 200,32.4217982" id="Fill-7" fill="#EDD0A2"></path>
                    <path d="M201,28 C201,28 201.305224,21.0086891 203.718847,17.2822855 C206.132471,13.5556149 207.748329,12.7925042 210.042012,13.0434046 C212.336275,13.2943049 212.500358,16.9758668 211.126414,18.974795 C209.752179,20.9737232 207.013293,24.1067743 201,28" id="Fill-8" fill="#EDD0A2"></path>
                    <path d="M196,40.0674355 C196,40.0674355 202.620036,36.036861 207.39407,36.0008835 C212.168103,35.9651785 213.766825,37.0107076 214.804314,39.3187211 C215.842349,41.6267347 212.536429,44.0544008 209.931368,43.9990717 C207.32658,43.9437426 202.920053,43.3075943 196,40.0674355" id="Fill-9" fill="#EDD0A2"></path>
                    <path d="M196,44.2441925 C196,44.2441925 203.80702,43.2254341 208.316679,45.3496161 C212.825776,47.4740929 213.922925,49.238349 213.99894,52.0066244 C214.075237,54.7746052 210.014347,55.6966758 207.582994,54.4630231 C205.152204,53.2290756 201.251228,50.6019995 196,44.2441925" id="Fill-10" fill="#EDD0A2"></path>
                    <path d="M193,46 C193,46 196.210141,48.9784721 197.25046,51.9377358 C198.29078,54.8969995 198.169845,56.1869123 197.36766,57.4845084 C196.565708,58.7823999 194.778535,57.4124033 194.243901,55.7764452 C193.709733,54.1404871 193.046693,51.2199356 193,46" id="Fill-11" fill="#EDD0A2"></path>
                    <path d="M199.051159,32 C199.051159,32 201.492589,25.1843523 200.910222,20.6566733 C200.327855,16.1292734 199.269513,14.7562689 197.252853,14.0848301 C195.235662,13.4133913 193.677997,16.8732399 194.057132,19.3333224 C194.436267,21.793405 195.52008,25.8820126 199.051159,32" id="Fill-12" fill="#EDD0A2"></path>
                    <path d="M192.853481,39 C192.853481,39 193.577431,30.6990616 191.806886,25.9414801 C190.036593,21.1836148 188.599215,20.0434524 186.364993,20.0003203 C184.131021,19.9571882 183.438134,24.2800439 184.464188,26.8438485 C185.489741,29.4073694 187.658332,33.5125783 192.853481,39" id="Fill-13" fill="#EDD0A2"></path>
                    <path d="M192,40 C192,40 189.670309,32.4889435 186.106127,29.1672416 C182.541944,25.8455398 180.654551,25.5052522 178.359544,26.4731635 C176.065093,27.4410748 176.956347,31.4949595 178.950014,33.2525747 C180.943958,35.0101899 184.672684,37.5878822 192,40" id="Fill-14" fill="#EDD0A2"></path>
                    <path d="M190,43.5929179 C190,43.5929179 185.876623,41.0428975 182.862428,41.0018548 C179.848519,40.9605292 178.824615,41.6087195 178.136383,43.0500231 C177.448725,44.4910437 179.502257,46.0240564 181.147717,45.9997138 C182.793176,45.9753713 185.584733,45.5943826 190,43.5929179" id="Fill-15" fill="#EDD0A2"></path>
                    <path d="M202.941877,25.5580591 C202.666969,25.996849 202.392334,26.4359097 202.1177,26.8790332 C200.673477,29.1902639 199.238271,31.5050157 197.825201,33.8314145 C197.637465,34.1399216 197.449457,34.4486997 197.266094,34.7615406 C196.115634,36.6580878 194.983483,38.5665527 193.882485,40.4901857 C193.761701,40.6998297 193.641189,40.9097446 193.520131,41.1196595 C193.003108,42.0254084 192.490183,42.935491 191.98655,43.8490948 C191.931896,43.9428117 191.877789,44.0408622 191.827781,44.138642 C191.815484,44.1524557 191.807832,44.1657277 191.800181,44.1833335 C191.753998,44.268112 191.70317,44.3572243 191.656988,44.4463366 C191.594683,44.5533254 191.532651,44.6649189 191.474718,44.7762415 C191.455316,44.8073902 191.440286,44.8428726 191.420611,44.8742921 C190.863143,45.8946139 190.314421,46.9184568 189.774989,47.9504255 C189.593812,48.2973945 189.408809,48.6489681 189.227906,49 L189.164234,48.0287035 L189,48.0392669 C189.061759,47.919006 189.127616,47.7987451 189.189102,47.678755 C189.732359,46.637848 190.284634,45.6050668 190.8503,44.5758066 C190.857678,44.55793 190.865603,44.544658 190.877353,44.5265105 C190.977916,44.3396185 191.078479,44.1527266 191.183414,43.9696266 C191.202543,43.9298105 191.225771,43.8894527 191.249545,43.8536994 C191.830513,42.7930198 192.424599,41.7361322 193.027975,40.6870994 C193.198768,40.3794048 193.377759,40.0714393 193.557296,39.7675367 C194.721419,37.7453115 195.912596,35.7428588 197.121535,33.7477194 C197.333044,33.3988543 197.544281,33.0499893 197.75989,32.7005826 C198.832468,30.9378392 199.918436,29.1829507 201.009323,27.4321251 C201.488089,26.6661389 201.962483,25.9004235 202.441523,25.138771 C202.669428,24.7758214 203.169783,25.1991724 202.941877,25.5580591" id="Fill-16" fill="#EDD0A2"></path>
                    <path d="M197.148866,31.2193443 C196.928933,32.043366 197.199675,32.8713054 197.005511,33.6948918 C196.924215,34.0396489 197.768015,34.1249676 197.84931,33.7799929 C198.043474,32.9557535 197.773459,32.1267258 197.993028,31.3044453 C198.084848,30.9603412 197.241048,30.8754578 197.148866,31.2193443" id="Fill-17" fill="#EDD0A2"></path>
                    <path d="M202.524796,33.0222836 C201.090396,33.4880006 199.656299,33.9537176 198.222504,34.4196756 C197.792911,34.5592461 198.044794,35.117528 198.474992,34.9777164 C199.90909,34.5117584 201.343187,34.0460414 202.777587,33.5803244 C203.20718,33.4407539 202.954995,32.882472 202.524796,33.0222836" id="Fill-18" fill="#EDD0A2"></path>
                    <path d="M196.62975,39.0518825 C195.978248,39.6110353 195.042029,40.1379132 194.321213,39.902348 C193.961406,39.7845655 193.868025,40.8127527 194.226869,40.9305353 C195.041066,41.1966987 196.092567,40.6559888 196.830712,40.0222264 C197.160675,39.7388776 196.96212,38.766438 196.62975,39.0518825" id="Fill-19" fill="#EDD0A2"></path>
                    <path d="M193.01116,37.2936438 C193.147812,37.7035342 193.395294,38.0932138 193.613723,38.4851644 C193.74392,38.718836 194.261479,39.4618616 194.147064,39.6144634 C193.901735,39.9407861 194.673949,40.1669638 194.917844,39.8417766 C195.161738,39.5174977 194.8002,39.0176812 194.64131,38.7145213 C194.386655,38.2271946 194.021889,37.7419117 193.853314,37.2364181 C193.737106,36.8869327 192.893875,36.9407521 193.01116,37.2936438" id="Fill-20" fill="#EDD0A2"></path>
                    <path d="M197.828024,44.3941778 C197.098348,44.0525684 196.353509,43.7114658 195.579369,43.4902306 C194.87411,43.2890155 194.108965,43.3042207 193.426067,43.0241922 C193.064956,42.8759418 192.814362,43.4514574 193.177016,43.6002146 C193.787692,43.8508465 194.448487,43.8863252 195.088463,44.0178499 C195.952046,44.1949901 196.781187,44.5966599 197.578716,44.9702002 C197.933659,45.1364434 198.18271,44.560421 197.828024,44.3941778" id="Fill-21" fill="#EDD0A2"></path>
                    <path d="M189.099236,39.5917423 C189.6482,40.1299504 190.005469,40.9411318 190.40453,41.64211 C190.810404,42.3545621 191.171761,43.1022365 191.527668,43.854714 C191.700738,44.2205461 192.132505,43.8232273 191.960116,43.4589962 C191.272151,42.0044732 190.519455,40.1347535 189.436064,39.0727463 C189.167146,38.8091123 188.829183,39.327041 189.099236,39.5917423" id="Fill-22" fill="#EDD0A2"></path>
                    <path d="M193.971306,45.640034 C193.539666,44.8084747 193.020439,44.0133277 192.627665,43.1666332 C192.476851,42.8415551 191.872774,43.0378742 192.024136,43.364049 C192.416909,44.2105242 192.936136,45.0056712 193.367776,45.8372305 C193.533097,46.1563861 194.137722,45.9609444 193.971306,45.640034" id="Fill-23" fill="#EDD0A2"></path>
                    <path d="M188.459826,44.4495967 C189.099386,44.0238672 189.898395,44.1502703 190.562621,44.2559978 C191.214514,44.3603156 191.916033,44.4937673 192.5183,44.9458111 C192.924705,45.2507762 193.208954,44.1826934 192.802842,43.8777283 C192.086935,43.3406325 191.250926,43.1742879 190.476289,43.0741992 C189.741882,42.9797493 188.917032,42.8942275 188.21522,43.3622479 C187.799418,43.6390191 188.043731,44.7273076 188.459826,44.4495967" id="Fill-24" fill="#EDD0A2"></path>
                    <path d="M47.1742791,35 C47.1742791,35 43.3013671,29.1746808 43.044604,24.904889 C42.7881126,20.6350972 43.6363819,19.1804719 45.6266359,18.1970862 C47.6168898,17.2134278 49.917705,20.1128611 49.9913376,22.4442432 C50.0652419,24.7756254 49.7109359,28.7323482 47.1742791,35" id="Fill-25" fill="#EDD0A2"></path>
                    <path d="M43,33 C43,33 35.7057472,30.9136269 32.3404146,27.597481 C28.9753712,24.2813351 28.5468248,22.5037944 29.3440599,20.3217885 C30.141295,18.1394902 34.057781,18.9200523 35.8445476,20.7765559 C37.6310251,22.6330594 40.2954154,26.1159046 43,33" id="Fill-26" fill="#EDD0A2"></path>
                    <path d="M54.4387419,42 C54.4387419,42 52.2754063,34.4206349 53.2542116,29.6443161 C54.2330168,24.8679972 55.4958714,23.5227371 57.7566166,23.040924 C60.0171139,22.5588304 61.4641296,26.4436408 60.863809,29.0314566 C60.2634883,31.619553 58.7686353,35.8674771 54.4387419,42" id="Fill-27" fill="#EDD0A2"></path>
                    <path d="M57,41 C57,41 57.9125641,33.6405716 61.0674871,29.9590025 C64.2221165,26.2771683 66.1978706,25.6433014 68.897686,26.1542108 C71.5975015,26.6651203 71.5020757,30.5751148 69.7157052,32.5413743 C67.9293346,34.5078987 64.4355766,37.5272465 57,41" id="Fill-28" fill="#EDD0A2"></path>
                    <path d="M59,45.0677141 C59,45.0677141 62.6180542,41.8386543 65.6153461,41.253737 C68.6129162,40.6685267 69.7596021,41.1148338 70.724398,42.3939741 C71.689194,43.6734073 69.9384328,45.5377579 68.2928008,45.8114616 C66.6471688,46.0851654 63.790049,46.2187938 59,45.0677141" id="Fill-29" fill="#EDD0A2"></path>
                    <path d="M46,37.7551172 C46,37.7551172 40.0098926,33.6014071 35.4932668,33.132984 C30.976641,32.664561 29.3920108,33.4386499 28.2516979,35.3755735 C27.111385,37.3122136 30.0747017,39.7515861 32.5440862,39.9412804 C35.0134706,40.1306912 39.2279717,39.9738886 46,37.7551172" id="Fill-30" fill="#EDD0A2"></path>
                    <path d="M51,41.9214402 C51,41.9214402 43.6084306,39.3642123 38.8303004,40.1500105 C34.051904,40.9358088 32.655621,42.16745 32.0623472,44.4598259 C31.4690733,46.7519364 35.2403148,48.4087207 37.8327273,47.9113935 C40.425672,47.4140663 44.707145,46.0757412 51,41.9214402" id="Fill-31" fill="#EDD0A2"></path>
                    <path d="M52,46 C52,46 43.8531317,46.4536271 39.6545568,49.1063654 C35.4562616,51.7588276 34.6682249,53.5034835 35.1078252,55.9557755 C35.5474256,58.4080675 39.8581377,58.5174018 42.1050771,57.009361 C44.3520166,55.5013201 47.8366603,52.5111915 52,46" id="Fill-32" fill="#EDD0A2"></path>
                    <path d="M55.3903509,47 C55.3903509,47 52.0697004,50.4898784 51.3577411,53.4812865 C50.6457818,56.4726946 51.0271005,57.6489791 52.2296789,58.6819644 C53.4322573,59.7149497 55.3336461,58.0404879 55.6782574,56.3962098 C56.0225948,54.7516386 56.2877647,51.8800861 55.3903509,47" id="Fill-33" fill="#EDD0A2"></path>
                    <path d="M40.6055346,29.1121053 C40.9645079,29.4830628 41.3234813,29.854294 41.6867377,30.2263466 C43.5777054,32.178322 45.4742947,34.1223581 47.3869453,36.0472304 C47.6407162,36.3032047 47.8944871,36.5591791 48.1530764,36.8113206 C49.7129106,38.3794714 51.2882709,39.9325649 52.8850465,41.4591028 C53.0593132,41.6261021 53.2333122,41.7931014 53.4073112,41.9601007 C54.15979,42.6776502 54.9170873,43.3919144 55.6797383,44.0979655 C55.7576364,44.1732521 55.8395497,44.24936 55.9219985,44.3210875 C55.9324384,44.3361449 55.9434138,44.3468219 55.9586721,44.3583202 C56.0293425,44.4234773 56.1034929,44.493836 56.178714,44.5598144 C56.2673196,44.645778 56.3602083,44.7325629 56.4539001,44.8149674 C56.4795984,44.8415231 56.5101152,44.8645197 56.5358135,44.8910753 C57.388944,45.674877 58.2476961,46.4507393 59.116085,47.2197574 C59.4081357,47.4776481 59.7036663,47.7410142 60,48 L59.0515715,47.8330007 L59.0242671,47.9953459 C58.9228123,47.9069184 58.8224282,47.8146582 58.7209734,47.7265044 C57.8448214,46.9517372 56.9785741,46.1701257 56.1184835,45.3761946 C56.1032252,45.3649701 56.0919822,45.3540193 56.0775269,45.3381407 C55.9209277,45.1963281 55.7640609,45.0542418 55.6122803,44.9088703 C55.5782835,44.8809458 55.5448222,44.8486411 55.5159116,44.8171576 C54.6295874,44.0010512 53.74942,43.1728989 52.8791573,42.3379024 C52.6224418,42.0989018 52.3673325,41.851688 52.1162385,41.6050219 C50.438888,39.9944368 48.7867005,38.3616764 47.1457559,36.7133112 C46.8587914,36.4250321 46.5718269,36.1370267 46.2856654,35.8446411 C44.8366552,34.3840816 43.3980849,32.9120238 41.9646007,31.4366808 C41.3382043,30.7894901 40.710737,30.1469535 40.088356,29.5003103 C39.7917546,29.1931411 40.3129485,28.8052099 40.6055346,29.1121053" id="Fill-34" fill="#EDD0A2"></path>
                    <path d="M44.1675157,35.8412097 C44.9605446,36.3850151 45.827927,36.4451918 46.6238674,36.9631544 C46.9573382,37.1798644 47.1640498,36.3791081 46.830579,36.162029 C46.0339667,35.6436972 45.1654645,35.5827821 44.3744512,35.0400842 C44.04322,34.8130372 43.8369563,35.6145318 44.1675157,35.8412097" id="Fill-35" fill="#EDD0A2"></path>
                    <path d="M46.0064585,34.3671086 C46.3290265,35.8149704 46.6515945,37.2628322 46.9741624,38.710694 C47.0704327,39.1444513 48.090231,39.0674344 47.9935439,38.6331044 C47.6709759,37.1849563 47.348408,35.7373808 47.02584,34.289519 C46.929153,33.8554754 45.9097715,33.9324924 46.0064585,34.3671086" id="Fill-36" fill="#EDD0A2"></path>
                    <path d="M53.1087056,38.2994621 C53.3034033,38.9947437 53.3951978,39.9576957 53.0309434,40.6147049 C52.8491085,40.9426189 53.5203189,41.1670557 53.701569,40.8400867 C54.11289,40.0977915 54.0441903,39.0230936 53.8237667,38.2352023 C53.7249562,37.8829546 53.0093103,37.9443794 53.1087056,38.2994621" id="Fill-37" fill="#EDD0A2"></path>
                    <path d="M50.229505,41.997953 C50.6343963,42.0143114 51.0362135,41.9290588 51.4358351,41.8692875 C51.6742906,41.834054 52.4467459,41.6324047 52.5738782,41.7796307 C52.8454892,42.0942161 53.1686996,41.5090872 52.8977474,41.1954455 C52.6276735,40.8830622 52.1059697,41.029659 51.7981294,41.0670947 C51.3036526,41.1268659 50.7951232,41.2813274 50.2960354,41.2611939 C49.9506482,41.2476667 49.8808242,41.9844258 50.229505,41.997953" id="Fill-38" fill="#EDD0A2"></path>
                    <path d="M58.426746,40.1236225 C57.9217268,40.8118655 57.41338,41.5164284 57.0163781,42.2831751 C56.6546994,42.981829 56.4919055,43.8003487 56.0583006,44.4545454 C55.8286999,44.800918 56.3357668,45.2165088 56.5661354,44.8690107 C56.9539226,44.2837509 57.1428249,43.5895989 57.4202911,42.9424365 C57.79528,42.0690487 58.3822081,41.2904843 58.9345809,40.5380877 C59.1803074,40.2035329 58.6722166,39.7890677 58.426746,40.1236225" id="Fill-39" fill="#EDD0A2"></path>
                    <path d="M51.4815326,47.91918 C52.0891225,47.3039871 52.8889754,47.0356582 53.6019611,46.6770138 C54.3272188,46.3121521 55.0722082,46.0199354 55.8198445,45.736554 C56.1834359,45.5987901 55.9418438,44.8801924 55.5799368,45.0173019 C54.1344745,45.5650853 52.3088173,46.084727 51.1095192,47.2987514 C50.8121009,47.5998032 51.1826706,48.2215408 51.4815326,47.91918" id="Fill-40" fill="#EDD0A2"></path>
                    <path d="M60.5287494,44.0081937 C59.1297742,44.2945043 57.7604763,44.7363415 56.3501132,44.9550509 C55.8079844,45.039 55.9311798,46.0795267 56.4743439,45.9951358 C57.8847069,45.7764263 59.2540048,45.3350309 60.6533252,45.0482786 C61.1899326,44.9387029 61.0688077,43.8977344 60.5287494,44.0081937" id="Fill-41" fill="#EDD0A2"></path>
                    <path d="M55.7237765,49.609252 C55.6180822,48.8986764 55.8719751,48.1106058 56.083647,47.4555583 C56.2916351,46.8124096 56.5276762,46.1241063 56.9283509,45.5843862 C57.1986788,45.2197929 56.636204,44.7706872 56.3661595,45.1349754 C55.889827,45.7769037 55.6039141,46.5963995 55.3712734,47.3637235 C55.1502506,48.0916896 54.9144929,48.9117957 55.0306716,49.6919338 C55.099812,50.1538537 55.7929169,50.071782 55.7237765,49.609252" id="Fill-42" fill="#EDD0A2"></path>
                    <path d="M46,144.99501 C46,144.99501 39.3885127,146.764935 35.3703537,145.607127 C31.3524674,144.449318 30.2835035,143.164826 30.014899,140.949547 C29.74684,138.734268 33.1568894,137.498543 35.3294495,138.193621 C37.5022822,138.889259 41.0358625,140.524933 46,144.99501" id="Fill-43" fill="#EDD0A2"></path>
                    <path d="M41,151 C41,151 37.1716348,156.023501 33.4649088,157.725225 C29.7581828,159.427189 28.1687638,159.289231 26.6000104,158.10964 C25.0309954,156.92981 26.8064047,154.14358 28.853344,153.265294 C30.9008066,152.387007 34.5423967,151.26418 41,151" id="Fill-44" fill="#EDD0A2"></path>
                    <path d="M54,143 C54,143 46.4017554,142.83267 42.4418092,140.227145 C38.4821374,137.62162 37.7161654,135.834088 38.0811753,133.263579 C38.4461853,130.692782 42.4604713,130.417534 44.5813712,131.903987 C46.7019967,133.390439 50.0027294,136.374251 54,143" id="Fill-45" fill="#EDD0A2"></path>
                    <path d="M57,139 C57,139 49.9319372,135.82772 47.2390819,131.95082 C44.5465139,128.074189 44.5304286,126.191417 45.8847553,124.066743 C47.2390819,121.94261 51.116219,123.297255 52.5225357,125.453822 C53.9291397,127.610388 55.8539208,131.559183 57,139" id="Fill-46" fill="#EDD0A2"></path>
                    <path d="M59.3080575,139 C59.3080575,139 57.627255,134.572029 58.0762346,131.554204 C58.5252141,128.536093 59.287331,127.590096 60.7247378,127.075136 C62.1621446,126.560747 63.2416002,128.797283 62.9531105,130.439218 C62.6649009,132.081153 61.8635718,134.826369 59.3080575,139" id="Fill-47" fill="#EDD0A2"></path>
                    <path d="M47,148 C47,148 41.9071232,152.164062 40.2278814,156.1235 C38.5488891,160.082938 38.7210806,161.760911 39.9643535,163.392987 C41.2076263,165.025337 44.0390542,163.084002 44.9030065,160.898703 C45.7672084,158.713403 46.8522646,154.835651 47,148" id="Fill-48" fill="#EDD0A2"></path>
                    <path d="M55.318727,145 C55.318727,145 50.2165968,151.129434 49.352735,155.891177 C48.4888732,160.65292 49.2369212,162.373081 51.3204203,163.683071 C53.4039194,164.993605 56.3584649,161.981418 56.7561977,159.374503 C57.1542179,156.767588 57.295321,152.29272 55.318727,145" id="Fill-49" fill="#EDD0A2"></path>
                    <path d="M60.2669568,145 C60.2669568,145 58.2538641,152.730059 59.3027805,157.503893 C60.3516968,162.277726 61.6238309,163.580938 63.8689253,163.973088 C66.1140197,164.364955 67.4804529,160.388972 66.8430941,157.805133 C66.205477,155.221295 64.6545792,151.001665 60.2669568,145" id="Fill-50" fill="#EDD0A2"></path>
                    <path d="M61,143 C61,143 62.8079996,147.143569 64.9910333,148.708542 C67.1740669,150.273791 68.2286909,150.273515 69.412058,149.465439 C70.5956795,148.657639 69.8199138,146.382522 68.6057604,145.56587 C67.3918614,144.749218 65.1721894,143.63628 61,143" id="Fill-51" fill="#EDD0A2"></path>
                    <path d="M39.2070245,151.350016 C39.6672824,151.128386 40.1278146,150.90648 40.5902668,150.681262 C43.0119695,149.51239 45.4281865,148.336343 47.8323347,147.138215 C48.1516077,146.979514 48.4711551,146.820812 48.7887824,146.656315 C50.7474844,145.678713 52.6976833,144.681791 54.6300534,143.655613 C54.8412564,143.543832 55.0524593,143.432327 55.2639366,143.320822 C56.1729323,142.836713 57.0802822,142.346809 57.9821464,141.849452 C58.0773249,141.799771 58.1741491,141.746503 58.2674075,141.691026 C58.2846878,141.686058 58.2984023,141.678882 58.3137625,141.668118 C58.3974208,141.62175 58.4865649,141.574277 58.571869,141.524045 C58.6804877,141.467464 58.7910264,141.407019 58.8979993,141.344643 C58.9306398,141.328635 58.9619088,141.307106 58.9948235,141.291374 C59.9979005,140.733021 60.995766,140.166663 61.9900658,139.588714 C62.3241505,139.394408 62.6639953,139.19817 63,139 L62.5353534,139.84788 L62.6763383,139.925989 C62.5616852,139.993886 62.4434664,140.059574 62.3288134,140.127471 C61.3265593,140.710941 60.3210136,141.282266 59.3064165,141.843932 C59.290782,141.854972 59.2773418,141.862148 59.2578672,141.870704 C59.0754647,141.974205 58.8930621,142.07743 58.7090138,142.174583 C58.6719847,142.198043 58.6313898,142.219295 58.5924407,142.236959 C57.5487688,142.816565 56.4957711,143.386235 55.4397562,143.944312 C55.1352948,144.111294 54.8234275,144.274135 54.5134803,144.433389 C52.4766059,145.508695 50.427937,146.553366 48.3682965,147.581752 C48.0084286,147.761981 47.6482864,147.941935 47.2843041,148.119681 C45.4611012,149.026626 43.6310411,149.919494 41.799061,150.806843 C40.9962154,151.193799 40.1974841,151.582962 39.3965586,151.966606 C39.0155703,152.149596 38.8282305,151.529142 39.2070245,151.350016" id="Fill-52" fill="#EDD0A2"></path>
                    <path d="M46.469543,149.892175 C47.0450499,149.165083 47.3661125,148.248995 47.9277406,147.512792 C48.1629859,147.204306 47.7685972,146.802102 47.5333518,147.110849 C46.9712611,147.847832 46.6492733,148.764441 46.074923,149.489971 C45.8343574,149.793771 46.2292088,150.195455 46.469543,149.892175" id="Fill-53" fill="#EDD0A2"></path>
                    <path d="M45.2569198,145.928266 C46.7002934,146.282528 48.143667,146.637183 49.5870406,146.991445 C50.0192588,147.09788 50.1762687,146.178056 49.7431684,146.07162 C48.2997948,145.717358 46.8564212,145.363096 45.4130476,145.008441 C44.9805353,144.902791 44.8238195,145.82183 45.2569198,145.928266" id="Fill-54" fill="#EDD0A2"></path>
                    <path d="M53.2250748,142.779843 C53.968995,142.888384 54.949282,143.224297 55.499788,143.900438 C55.7745327,144.238011 56.1834727,143.636222 55.9092364,143.299313 C55.2878203,142.536207 54.2028203,142.125278 53.3602868,142.002796 C52.9833707,141.947695 52.8456171,142.724743 53.2250748,142.779843" id="Fill-55" fill="#EDD0A2"></path>
                    <path d="M55.7849783,146.838088 C56.0172923,146.447014 56.1391021,146.035027 56.287535,145.630707 C56.3765218,145.389742 56.5709069,144.588772 56.7951975,144.499543 C57.2758721,144.308537 56.8218206,143.855421 56.3429694,144.045729 C55.8659417,144.235341 55.7459554,144.778849 55.6226868,145.087897 C55.42429,145.584466 55.3192564,146.117052 55.0329668,146.599215 C54.8349347,146.932894 55.5854874,147.174789 55.7849783,146.838088" id="Fill-56" fill="#EDD0A2"></path>
                    <path d="M56.040094,137.590329 C56.3979921,138.413691 56.7669091,139.24687 57.2111963,139.974912 C57.6162558,140.638669 58.1623589,141.118752 58.5156289,141.848378 C58.7022912,142.234725 59.1419505,141.805943 58.9544066,141.418329 C58.6386013,140.76534 58.1890249,140.300774 57.7982902,139.751338 C57.2709195,139.009678 56.8702676,138.060279 56.4788717,137.159964 C56.3047711,136.759366 55.8659934,137.189731 56.040094,137.590329" id="Fill-57" fill="#EDD0A2"></path>
                    <path d="M59.9820962,144.632636 C59.7080873,143.947047 59.7988324,143.168767 59.7802105,142.447366 C59.7609973,141.713558 59.8097691,140.978581 59.8674086,140.243604 C59.8951937,139.885946 59.2023383,139.938377 59.1742575,140.294631 C59.0631169,141.715899 58.7793536,143.471652 59.3193907,144.824104 C59.4535871,145.159994 60.1165882,144.969461 59.9820962,144.632636" id="Fill-58" fill="#EDD0A2"></path>
                    <path d="M58.909968,137.335703 C58.5806177,138.728171 58.4166513,140.13229 58.0150045,141.51805 C57.8609611,142.050817 58.9402097,142.200514 59.0951981,141.666335 C59.4963723,140.280222 59.6603387,138.876456 59.9896891,137.483988 C60.116326,136.949455 59.0370774,136.797993 58.909968,137.335703" id="Fill-59" fill="#EDD0A2"></path>
                    <path d="M61.8105374,143.355905 C61.3198575,143.246781 60.866206,142.796101 60.4894262,142.421261 C60.1193591,142.052968 59.7265553,141.646755 59.4712545,141.137148 C59.2988886,140.793135 58.8675407,141.163883 59.0399066,141.507622 C59.3437124,142.113805 59.8099233,142.601315 60.2553463,143.027443 C60.6775995,143.4312 61.1565863,143.874788 61.6955546,143.994552 C62.0143017,144.065209 62.1299341,143.426563 61.8105374,143.355905" id="Fill-60" fill="#EDD0A2"></path>
                    <path d="M5.11215554,116.563434 C3.78970746,116.168996 2.45836036,115.987982 1.14535064,116.000618 C1.0954622,116.308533 1.04476476,116.619194 1,116.928482 C2.27282931,116.901015 3.57208601,117.069667 4.85678068,117.452844 C11.6494285,119.478875 15.5593336,126.75951 13.5724254,133.670702 C11.9185563,139.423574 6.6972595,143.146845 1.07739449,143.071034 C1.12647393,143.380322 1.18040737,143.690984 1.23757683,144 C7.18967186,144.003843 12.6906136,140.035833 14.4456079,133.931098 C16.573552,126.528505 12.3875077,118.733397 5.11215554,116.563434" id="Fill-61" fill="#FFFFFE"></path>
                    <path d="M28.4892164,124.419494 C26.2664682,111.953309 17.2173351,102.410701 5.91882255,99 C5.21323177,100.933846 4.57435638,102.889808 4,104.865123 C13.2347282,107.585224 20.6415095,115.34687 22.4532579,125.510133 C24.7979059,138.656689 16.9721629,151.315843 4.66001565,155.260667 C5.34034793,157.196171 6.10826131,159.109559 6.96155942,161 C21.9063565,155.972002 31.3524873,140.490455 28.4892164,124.419494" id="Fill-62" fill="#FFFFFE"></path>
                    <polygon id="Fill-63" fill="#292756" points="108 175 143 175 143 149 108 149"></polygon>
                    <path d="M243.183852,175 C243.18358,175 243.183308,175 243.183035,175 L3.81533222,174.7229 C3.3645466,174.722326 3,174.336109 3,173.860589 C3,173.385068 3.36590685,173 3.81614836,173 C3.81642041,173 3.81669246,173 3.81696451,173 L243.184668,173.2771 C243.635453,173.277674 244,173.663604 244,174.139411 C244,174.614932 243.634093,175 243.183852,175" id="Fill-64" fill="#120F29"></path>
                    <path d="M212.454767,179 C212.454494,179 212.454494,179 212.454222,179 L105.544688,178.805462 C105.243447,178.80501 105,178.400587 105,177.901828 C105,177.403521 105.244537,177 105.545233,177 C105.545506,177 105.545778,177 105.546051,177 L212.455312,177.194538 C212.756553,177.19499 213,177.599413 213,178.098172 C213,178.596028 212.755735,179 212.454767,179" id="Fill-65" fill="#120F29"></path>
                    <path d="M88.4490024,179 C88.4487269,179 88.4487269,179 88.4484514,179 L47.5504459,178.921691 C47.2460203,178.921211 47,178.490271 47,177.959885 C47,177.429498 47.2471223,177 47.5509969,177 C47.5512724,177 47.5515479,177 47.5518234,177 L88.4498289,177.078309 C88.7539791,177.078789 89.0005501,177.509248 89,178.040115 C89,178.570022 88.7531526,179 88.4490024,179" id="Fill-66" fill="#120F29"></path>
                    <path d="M12,96.3495155 C11.5913509,95.8347956 11.7657186,95.1194758 11.5333179,94.5515884 C11.3592189,94.1256728 11.077114,94.1371685 10.790979,93.837993 C10.4849623,93.5178378 10.4086597,93.1614712 10.2283812,92.75711 C10.0303704,92.3125139 9.5545535,90.7361664 8.94896831,91.071266 C8.52527361,91.3060656 8.74316606,92.7217608 8.83612635,93.1051423 C8.36245878,93.189923 7.82565345,92.6927341 7.36488211,92.5415657 C6.80577706,92.3579219 6.4266818,92.330907 6.15451774,91.7704918 C5.90304137,91.2520359 5.82297731,90.6361539 5.35199646,90.2427136 C4.90573337,89.8696782 4.53980301,90.045275 4.01723726,90.0179727 C3.89552915,90.7720905 4.45141014,91.85556 4.64780889,92.5763402 C4.91164414,93.5454275 4.84044623,93.9900236 5.68649227,94.5863629 C6.4895509,95.152526 7.36165805,95.4767046 8.15799989,96.0816657 C8.81705068,96.5817285 9.41565042,97.1165659 10.1064044,97.5709333 C10.7041981,97.9637988 11.9725955,98.7078578 12,96.3495155" id="Fill-67" fill="#9F5542"></path>
                    <path d="M194.444307,35 L57.555418,35 C52.8302833,35 49,39.0209502 49,43.9807318 L49,128 L203,128 L203,43.9807318 C203,39.0209502 199.169442,35 194.444307,35" id="Fill-68" fill="#FFFFFE"></path>
                    <g id="shutterstock_1918121837-[Converted]" transform="translate(77.000000, 50.000000)" fill-rule="nonzero">
                        <g id="Group">
                            <g transform="translate(25.811172, 0.000000)">
                                <g transform="translate(5.876597, 10.227196)" fill="#D3DEE2" id="Rectangle">
                                    <rect x="0" y="0" width="1.37393956" height="6.5052736"></rect>
                                    <rect x="22.2509512" y="0" width="1.37393956" height="6.5052736"></rect>
                                </g>
                                <g>
                                    <path d="M1.39927158,10.8313345 C1.00641073,10.8313345 0.686969782,10.5102782 0.686969782,10.1154307 L0.686969782,1.4067789 C0.686969782,1.01193145 1.00641073,0.69087516 1.39927158,0.69087516 L33.9792429,0.69087516 C34.3721037,0.69087516 34.6915446,1.01193145 34.6915446,1.4067789 L34.6915446,10.1154307 C34.6915446,10.5102782 34.3721037,10.8313345 33.9792429,10.8313345 L1.39927158,10.8313345 Z" id="Path" fill="#FFFFFF"></path>
                                    <path d="M33.9788135,1.38088726 C33.9929822,1.38088726 34.0041455,1.3925385 34.0041455,1.40634737 L34.0041455,10.1149992 C34.0041455,10.1292396 33.9925529,10.1404593 33.9788135,10.1404593 L1.39927158,10.1404593 C1.38510282,10.1404593 1.37393956,10.1288081 1.37393956,10.1149992 L1.37393956,1.4067789 C1.37393956,1.3925385 1.38553218,1.38131879 1.39927158,1.38131879 L33.9788135,1.38131879 M33.9788135,0 L1.39927158,0 C0.62643057,0 0,0.629598287 0,1.40634737 L0,10.1149992 C0,10.8917483 0.62643057,11.5213466 1.39927158,11.5213466 L33.9792429,11.5213466 C34.7520839,11.5213466 35.3785144,10.8917483 35.3785144,10.1149992 L35.3785144,1.4067789 C35.3785144,0.629598287 34.7520839,0 33.9788135,0 L33.9788135,0 Z" id="Shape" fill="#D3DEE2"></path>
                                </g>
                                <g transform="translate(5.739203, 2.445897)" fill="#234D77">
                                    <path d="M0.629865419,5.17012823 C0.79774366,5.26031742 0.98666035,5.33454012 1.19618613,5.39365935 C1.40614127,5.45277859 1.61695512,5.48212244 1.82991576,5.48212244 C2.01453889,5.48212244 2.18799876,5.4639983 2.35029537,5.42731848 C2.51259198,5.39063866 2.65385014,5.33195095 2.77406985,5.2503923 C2.89428956,5.16883364 2.98917726,5.06613015 3.05959167,4.94271335 C3.12957671,4.81929655 3.16435456,4.67300881 3.16435456,4.50428165 C3.16435456,4.27384608 3.08749981,4.08526867 2.93379033,3.93941245 C2.77965148,3.79312471 2.58815865,3.66409805 2.35888249,3.55146943 C2.12960632,3.43927234 1.88057978,3.32923289 1.61223221,3.22264565 C1.34388464,3.11605842 1.09485809,2.9891894 0.865581926,2.84290166 C0.636305761,2.69661391 0.444383578,2.51839315 0.290674089,2.30737631 C0.1369646,2.09635948 0.0601098559,1.82794952 0.0601098559,1.50214643 C0.0601098559,1.27171087 0.106480316,1.06371472 0.198362525,0.878157995 C0.290674089,0.692601269 0.420768992,0.535093815 0.588647232,0.406067161 C0.756525473,0.27660898 0.959181558,0.176926181 1.19704485,0.106587236 C1.43490813,0.0362482907 1.69896214,0.00129458181 1.99006559,0.00129458181 C2.32582207,0.00129458181 2.63066491,0.0254601089 2.90459411,0.0729281087 C3.17852331,0.120827636 3.39663622,0.183830617 3.55893283,0.262800108 L3.57567772,0.254169562 L3.57567772,0.270999126 L3.58426484,0.270999126 L3.57567772,0.296459235 L3.57567772,1.64584501 L2.95482878,1.64584501 L2.95482878,0.742226905 C2.81485868,0.708567778 2.66114919,0.680518505 2.49327095,0.658079087 C2.32539271,0.635639669 2.14635121,0.62441996 1.95614645,0.62441996 C1.77152333,0.62441996 1.60493315,0.646859378 1.45680529,0.691738214 C1.30867744,0.73661705 1.18244674,0.797030868 1.07897191,0.872979668 C0.975497091,0.948928467 0.895636854,1.03739156 0.839820559,1.13880047 C0.784004264,1.24020937 0.756096117,1.34679661 0.756096117,1.45942523 C0.756096117,1.67864108 0.832950861,1.86160864 0.98666035,2.00746486 C1.14036984,2.15375261 1.33186267,2.28450537 1.56156819,2.39972315 C1.79084435,2.51494093 2.0398709,2.62886413 2.30821847,2.74149275 C2.57656604,2.85412137 2.82559259,2.98487413 3.05486875,3.13375104 C3.28414492,3.28262795 3.47563774,3.46128023 3.62977659,3.66927638 C3.78348608,3.87727252 3.86034082,4.13618889 3.86034082,4.44516241 C3.86034082,4.69803739 3.81397036,4.92588379 3.72208815,5.12827008 C3.62977659,5.33065637 3.49839362,5.50499339 3.32750988,5.65128113 C3.15662615,5.79756888 2.94710037,5.90976597 2.69807382,5.98873546 C2.44904727,6.06727342 2.16781902,6.10697393 1.85481841,6.10697393 C1.64228714,6.10697393 1.44091912,6.09014437 1.25071436,6.05648524 C1.0605096,6.02282611 0.885761663,5.98053644 0.726041189,5.93004775 C0.56675007,5.87955906 0.423774484,5.82604968 0.297973143,5.76995113 C0.172171802,5.71385259 0.0725611832,5.66595306 -9.76242777e-15,5.62668408 L0.00858712228,5.60122397 L0.00858712228,4.23500863 L0.629436063,4.23500863 L0.629436063,5.17012823 L0.629865419,5.17012823 Z" id="Path"></path>
                                    <polygon id="Path" points="4.74180892 0.101408909 9.10535511 0.101408909 9.10535511 1.64498195 8.48450617 1.64498195 8.48450617 0.725828869 7.26771094 0.725828869 7.26771094 5.38114506 8.19082658 5.38114506 8.19082658 6.00513349 5.64817968 6.00513349 5.64817968 5.38114506 6.57129532 5.38114506 6.57129532 0.725397341 5.36308722 0.725397341 5.36308722 1.64455043 4.74223828 1.64455043 4.74223828 0.101408909"></polygon>
                                    <path d="M9.84341827,3.05305544 C9.84341827,2.07478312 10.0151607,1.3213365 10.3586456,0.792715596 C10.7021305,0.264094689 11.2310972,0 11.9455458,0 C12.3362599,0 12.6672934,0.0729281087 12.9377878,0.219215853 C13.2087115,0.365503598 13.4276831,0.57220516 13.595132,0.838889013 C13.7625809,1.10600439 13.8823712,1.42662916 13.9553618,1.80033177 C14.027923,2.17446591 14.0644182,2.59175279 14.0644182,3.05262391 C14.0644182,4.03089623 13.8926758,4.78434285 13.5491909,5.31296375 C13.205706,5.84158466 12.6711576,6.10567935 11.9455458,6.10567935 C11.5604134,6.10567935 11.2336734,6.03275124 10.9657551,5.88646349 C10.6978369,5.74017575 10.4801534,5.53390571 10.3127045,5.26635881 C10.1452556,4.99924343 10.0250359,4.67905019 9.95247472,4.30491605 C9.87991354,3.93164496 9.84341827,3.51435809 9.84341827,3.05305544 Z M10.573753,3.05305544 C10.573753,3.37929005 10.5947915,3.68869511 10.6368684,3.98083907 C10.6789453,4.27341456 10.7532239,4.53060481 10.8597042,4.75240983 C10.9661845,4.97464637 11.106584,5.15157255 11.2804732,5.2836199 C11.4543624,5.41566724 11.6759102,5.48169091 11.9455458,5.48169091 C12.4281421,5.48169091 12.7802141,5.28491448 13.0017618,4.89136161 C13.2233096,4.49780874 13.3340835,3.88504001 13.3340835,3.05262391 C13.3340835,2.73199915 13.313045,2.4243202 13.2709681,2.12915555 C13.2288912,1.8339909 13.1546126,1.57550606 13.0481323,1.35326952 C12.941652,1.13103298 12.7986764,0.954106795 12.6187762,0.82205945 C12.4393053,0.690012105 12.2147521,0.623988433 11.9455458,0.623988433 C11.4685312,0.623988433 11.1207527,0.82205945 10.9017811,1.21863301 C10.6828095,1.61520657 10.573753,2.22668071 10.573753,3.05305544 Z" id="Shape"></path>
                                    <path d="M15.3147032,0.160528145 C15.5268051,0.121259163 15.7706794,0.0901891995 16.0471848,0.0677497814 C16.3232607,0.0453103634 16.5761515,0.0340906544 16.8045689,0.0340906544 C17.0613239,0.0340906544 17.3056275,0.0621399269 17.5370505,0.118238472 C17.7684734,0.174337017 17.9724176,0.26711538 18.1480242,0.396573561 C18.3236309,0.526031742 18.4644597,0.694758905 18.5705106,0.902755049 C18.6765616,1.11075119 18.7293724,1.3640577 18.7293724,1.66181152 C18.7293724,1.89224708 18.6915891,2.09592795 18.6164517,2.27328566 C18.5408851,2.45021184 18.4490029,2.60210944 18.3403758,2.72854693 C18.2317487,2.85498442 18.1183986,2.95768791 18.0011844,3.03622587 C17.8839702,3.11519536 17.7835009,3.17129391 17.6997764,3.20495304 L19.2523281,6.00513349 L18.438269,6.00513349 L17.0535955,3.40733933 L16.0106895,3.40733933 L16.0106895,6.00513349 L15.3142739,6.00513349 L15.3142739,0.160528145 L15.3147032,0.160528145 Z M16.825178,0.641249524 C16.7526169,0.641249524 16.6770502,0.641249524 16.598478,0.641249524 C16.5199058,0.641249524 16.4443392,0.644270215 16.371778,0.649880069 C16.2987874,0.655489924 16.2305198,0.661099778 16.1661164,0.666709633 C16.101713,0.672319487 16.0497609,0.680950033 16.0106895,0.692169742 L16.0106895,2.86793024 L16.6650282,2.86793024 C17.0510194,2.86793024 17.3700309,2.77256271 17.6216336,2.5809646 C17.8732363,2.38979802 17.9990377,2.09161268 17.9990377,1.6868401 C17.9990377,1.3830449 17.8955628,1.13319061 17.6886132,0.936414177 C17.4825222,0.739637741 17.1944243,0.641249524 16.825178,0.641249524 Z" id="Shape"></path>
                                    <polygon id="Path" points="20.4081548 0.101408909 23.8571725 0.101408909 23.8571725 0.725397341 21.1049998 0.725397341 21.1049998 2.6569134 23.6476467 2.6569134 23.6476467 3.28090184 21.1049998 3.28090184 21.1049998 5.38071353 23.8992494 5.38071353 23.8992494 6.00470197 20.4081548 6.00470197"></polygon>
                                </g>
                            </g>
                            <g transform="translate(3.647810, 67.836087)" fill="#6CD3B6" id="Path">
                                <path d="M56.3529899,6.14106458 C56.3529899,6.13545473 56.3525606,6.12941335 56.3525606,6.12380349 C56.3525606,3.81901634 58.2116726,1.95050326 60.5048636,1.95050326 C61.3472603,1.95050326 62.1308352,2.20294671 62.7856032,2.63620009 C63.175888,2.01005402 63.86801,1.59363021 64.6571665,1.59363021 C64.7821092,1.59363021 64.9044757,1.60441839 65.0234073,1.62470017 C65.8035474,0.634776615 67.010038,0 68.3642272,0 C69.6132242,0 70.7368491,0.540272142 71.5161305,1.40116905 C71.8106688,1.25444977 72.142561,1.17202807 72.493345,1.17202807 C73.4443688,1.17202807 74.2545638,1.77616624 74.5649882,2.6236858 C74.8912989,2.54083257 75.2330663,2.49638526 75.5855677,2.49638526 C77.7005759,2.49638526 79.4463379,4.0857002 79.7048103,6.14106458 L56.3529899,6.14106458 L56.3529899,6.14106458 Z"></path>
                                <path d="M0.000429356114,6.14106458 C0.000429356114,6.13545473 -9.76242777e-15,6.12941335 -9.76242777e-15,6.12380349 C-9.76242777e-15,3.81901634 1.85911197,1.95050326 4.15230298,1.95050326 C4.99469967,1.95050326 5.77827458,2.20294671 6.43304265,2.63620009 C6.82332736,2.01005402 7.51544942,1.59363021 8.30460595,1.59363021 C8.42954858,1.59363021 8.55191508,1.60441839 8.67084672,1.62470017 C9.45098678,0.634776615 10.6574775,0 12.0116666,0 C13.2606636,0 14.3842885,0.540272142 15.1635699,1.40116905 C15.4581082,1.25444977 15.7900004,1.17202807 16.1407844,1.17202807 C17.0918082,1.17202807 17.9020032,1.77616624 18.2124276,2.6236858 C18.5387383,2.54083257 18.8805058,2.49638526 19.2330071,2.49638526 C21.3480153,2.49638526 23.0937773,4.0857002 23.3522497,6.14106458 L0.000429356114,6.14106458 L0.000429356114,6.14106458 Z"></path>
                            </g>
                            <g transform="translate(1.795997, 46.982963)" id="Path">
                                <g transform="translate(72.849711, -0.000000)">
                                    <path d="M5.60996698,19.3065301 L4.94875857,19.3065301 C2.21547755,19.3065301 0,17.0794178 0,14.3327468 L0,4.97378332 C0,2.22668071 2.2159069,-9.81179415e-15 4.94875857,-9.81179415e-15 L5.60996698,-9.81179415e-15 C8.343248,-9.81179415e-15 10.5587256,2.22711224 10.5587256,4.97378332 L10.5587256,14.3327468 C10.5587256,17.0794178 8.343248,19.3065301 5.60996698,19.3065301 Z" fill="#6CD3B6"></path>
                                    <g transform="translate(2.987183, 6.173861)" fill="#1E4A4C">
                                        <path d="M2.40123665,21.3722511 C2.16423208,21.3722511 1.97188054,21.1789269 1.97188054,20.9407238 L1.97188054,0.43152727 C1.97188054,0.193324217 2.16423208,1.96235883e-14 2.40123665,1.96235883e-14 C2.63824123,1.96235883e-14 2.83059277,0.193324217 2.83059277,0.43152727 L2.83059277,20.9407238 C2.83059277,21.1789269 2.63824123,21.3722511 2.40123665,21.3722511 Z"></path>
                                        <path d="M2.51501602,7.00066691 C2.38277434,7.00066691 2.25225008,6.93939003 2.16809628,6.82374072 C2.02812619,6.63127956 2.06977373,6.36114349 2.26126656,6.22089713 L5.24400348,4.0304647 C5.43549631,3.88978681 5.70427324,3.93164496 5.84381397,4.12410612 C5.98378407,4.31656728 5.94213652,4.58670336 5.7506437,4.72694972 L2.76790677,6.91738214 C2.69191074,6.97348069 2.60303403,7.00066691 2.51501602,7.00066691 Z"></path>
                                        <path d="M2.40123665,4.05980856 C2.30377282,4.05980856 2.20587962,4.02658096 2.12559003,3.95883118 L0.153557397,2.29658813 C-0.0280602387,2.14339595 -0.0521041811,1.87110224 0.100317239,1.68856621 C0.25273866,1.50603017 0.523662368,1.48229617 0.705280004,1.63505683 L2.67731263,3.29729987 C2.85893027,3.45049205 2.88297421,3.72278576 2.73055279,3.9053218 C2.64554028,4.00716223 2.52360315,4.05980856 2.40123665,4.05980856 Z"></path>
                                    </g>
                                </g>
                                <g transform="translate(0.000000, -0.000000)">
                                    <path d="M5.60996698,19.3065301 L4.94875857,19.3065301 C2.21547755,19.3065301 0,17.0794178 0,14.3327468 L0,4.97378332 C0,2.22668071 2.2159069,-9.81179415e-15 4.94875857,-9.81179415e-15 L5.60996698,-9.81179415e-15 C8.343248,-9.81179415e-15 10.5587256,2.22711224 10.5587256,4.97378332 L10.5587256,14.3327468 C10.5587256,17.0794178 8.343248,19.3065301 5.60996698,19.3065301 Z" fill="#6CD3B6"></path>
                                    <g transform="translate(2.987183, 6.173861)" fill="#1E4A4C">
                                        <path d="M2.40123665,21.3722511 C2.16423208,21.3722511 1.97188054,21.1789269 1.97188054,20.9407238 L1.97188054,0.43152727 C1.97188054,0.193324217 2.16423208,1.96235883e-14 2.40123665,1.96235883e-14 C2.63824123,1.96235883e-14 2.83059277,0.193324217 2.83059277,0.43152727 L2.83059277,20.9407238 C2.83059277,21.1789269 2.63824123,21.3722511 2.40123665,21.3722511 Z"></path>
                                        <path d="M2.51501602,7.00066691 C2.38277434,7.00066691 2.25225008,6.93939003 2.16809628,6.82374072 C2.02812619,6.63127956 2.06977373,6.36114349 2.26126656,6.22089713 L5.24400348,4.0304647 C5.43549631,3.88978681 5.70427324,3.93164496 5.84381397,4.12410612 C5.98378407,4.31656728 5.94213652,4.58670336 5.7506437,4.72694972 L2.76790677,6.91738214 C2.69191074,6.97348069 2.60303403,7.00066691 2.51501602,7.00066691 Z"></path>
                                        <path d="M2.40123665,4.05980856 C2.30377282,4.05980856 2.20587962,4.02658096 2.12559003,3.95883118 L0.153557397,2.29658813 C-0.0280602387,2.14339595 -0.0521041811,1.87110224 0.100317239,1.68856621 C0.25273866,1.50603017 0.523662368,1.48229617 0.705280004,1.63505683 L2.67731263,3.29729987 C2.85893027,3.45049205 2.88297421,3.72278576 2.73055279,3.9053218 C2.64554028,4.00716223 2.52360315,4.05980856 2.40123665,4.05980856 Z"></path>
                                    </g>
                                </g>
                            </g>
                            <rect id="Rectangle" fill="#19597C" x="14.6852672" y="29.9876931" width="57.629895" height="43.7758524"></rect>
                            <g transform="translate(12.354722, 15.276065)" id="Path">
                                <path d="M-4.88121388e-15,14.8212356 L-4.88121388e-15,18.9910836 C-4.88121388e-15,21.3062274 1.86726974,23.1829395 4.17076529,23.1829395 L4.72806953,23.1829395 C7.03156508,23.1829395 8.89883482,21.3062274 8.89883482,18.9910836 L8.89883482,14.8212356 L-4.88121388e-15,14.8212356 L-4.88121388e-15,14.8212356 Z" fill="#D3DEE2"></path>
                                <path d="M8.89883482,14.8212356 L8.89883482,18.9910836 C8.89883482,21.3062274 10.7661046,23.1829395 13.0696001,23.1829395 L13.6269043,23.1829395 C15.9303999,23.1829395 17.7976696,21.3062274 17.7976696,18.9910836 L17.7976696,14.8212356 L8.89883482,14.8212356 L8.89883482,14.8212356 Z" fill="#FF4D4D"></path>
                                <path d="M17.7976696,14.8212356 L17.7976696,18.9910836 C17.7976696,21.3062274 19.6649394,23.1829395 21.9684349,23.1829395 L22.5257392,23.1829395 C24.8292347,23.1829395 26.6965044,21.3062274 26.6965044,18.9910836 L26.6965044,14.8212356 L17.7976696,14.8212356 L17.7976696,14.8212356 Z" fill="#D3DEE2"></path>
                                <path d="M26.6960751,14.8212356 L26.6960751,18.9910836 C26.6960751,21.3062274 28.5633448,23.1829395 30.8668404,23.1829395 L31.4241446,23.1829395 C33.7276402,23.1829395 35.5949099,21.3062274 35.5949099,18.9910836 L35.5949099,14.8212356 L26.6960751,14.8212356 L26.6960751,14.8212356 Z" fill="#FF4D4D"></path>
                                <path d="M35.5949099,14.8212356 L35.5949099,18.9910836 C35.5949099,21.3062274 37.4621796,23.1829395 39.7656752,23.1829395 L40.3229794,23.1829395 C42.626475,23.1829395 44.4937447,21.3062274 44.4937447,18.9910836 L44.4937447,14.8212356 L35.5949099,14.8212356 L35.5949099,14.8212356 Z" fill="#D3DEE2"></path>
                                <path d="M44.4933154,14.8212356 L44.4933154,18.9910836 C44.4933154,21.3062274 46.3605851,23.1829395 48.6640807,23.1829395 L49.2213849,23.1829395 C51.5248804,23.1829395 53.3921502,21.3062274 53.3921502,18.9910836 L53.3921502,14.8212356 L44.4933154,14.8212356 L44.4933154,14.8212356 Z" fill="#FF4D4D"></path>
                                <g transform="translate(-0.000000, -0.000000)">
                                    <polygon fill="#EAF2F4" points="8.89883482 14.9330012 -9.76242777e-15 14.9330012 7.40639296 -4.90589707e-15 14.1889315 -4.90589707e-15"></polygon>
                                    <polygon fill="#FF5A6A" points="17.7976696 14.9330012 8.89883482 14.9330012 14.1889315 -4.90589707e-15 20.97147 -4.90589707e-15"></polygon>
                                    <polygon fill="#EAF2F4" points="26.6960751 14.9330012 17.7976696 14.9330012 20.97147 -4.90589707e-15 27.7540086 -4.90589707e-15"></polygon>
                                    <polygon fill="#FF5A6A" points="35.5949099 14.9330012 26.6960751 14.9330012 27.7540086 -4.90589707e-15 34.5369764 -4.90589707e-15"></polygon>
                                    <polygon fill="#EAF2F4" points="44.4933154 14.9330012 35.5949099 14.9330012 34.5369764 -4.90589707e-15 41.319515 -4.90589707e-15"></polygon>
                                    <polygon fill="#FF5A6A" points="53.3921502 14.9330012 44.4933154 14.9330012 41.319515 -4.90589707e-15 48.1020535 -4.90589707e-15"></polygon>
                                    <polygon fill="#EAF2F4" points="62.290985 14.9330012 53.3921502 14.9330012 48.1020535 -4.90589707e-15 54.884592 -4.90589707e-15"></polygon>
                                </g>
                                <path d="M53.3921502,14.8212356 L53.3921502,18.9910836 C53.3921502,21.3062274 55.2594199,23.1829395 57.5629155,23.1829395 L58.1202197,23.1829395 C60.4237153,23.1829395 62.290985,21.3062274 62.290985,18.9910836 L62.290985,14.8212356 L53.3921502,14.8212356 L53.3921502,14.8212356 Z" fill="#D3DEE2"></path>
                            </g>
                            <g transform="translate(22.315784, 42.108431)">
                                <rect id="Rectangle" fill="#5DE2E8" x="0.686969782" y="0.690443632" width="15.0884326" height="30.2742272"></rect>
                                <path d="M15.0884326,1.38088726 L15.0884326,30.2742272 L1.37393956,30.2742272 L1.37393956,1.38088726 L15.0884326,1.38088726 M16.4623721,0 L4.88121388e-15,0 L4.88121388e-15,31.6551144 L16.4623721,31.6551144 L16.4623721,0 L16.4623721,0 Z" id="Shape" fill="#FFFFFF"></path>
                            </g>
                            <rect id="Rectangle" fill="#D6E5EA" x="4.88121388e-15" y="73.7635455" width="87" height="3.23645453"></rect>
                            <rect id="Rectangle" fill="#FFFFFF" x="23.3625542" y="56.627166" width="14.4907688" height="1.38088726"></rect>
                            <g transform="translate(43.060554, 42.108431)">
                                <g>
                                    <rect id="Rectangle" fill="#5DE2E8" x="0.686969782" y="0.690443632" width="24.2096738" height="23.0634065"></rect>
                                    <path d="M24.2096738,1.38088726 L24.2096738,23.0634065 L1.37393956,23.0634065 L1.37393956,1.38088726 L24.2096738,1.38088726 M25.5836134,0 L0,0 L0,24.4442938 L25.5836134,24.4442938 L25.5836134,0 L25.5836134,0 Z" id="Shape" fill="#FFFFFF"></path>
                                </g>
                                <rect id="Rectangle" fill="#FFFFFF" x="0.878891965" y="14.518735" width="23.9580712" height="1.38088726"></rect>
                            </g>
                            <g transform="translate(27.076914, 46.270512)">
                                <g transform="translate(0.437943, 0.000000)" fill="#194060">
                                    <polygon id="Path" points="6.33300268 4.24061849 3.22403506 0.438431707 0.132671039 4.24018696 0 4.13101056 3.2236057 0.165706472 6.46567372 4.13101056"></polygon>
                                    <ellipse id="Oval" cx="3.22403506" cy="0.356009998" rx="1" ry="1"></ellipse>
                                </g>
                                <rect id="Rectangle" fill="#234D77" x="0" y="3.93164496" width="7.32395659" height="3.04226726"></rect>
                                <g transform="translate(0.960470, 4.591450)" fill="#FFFFFF">
                                    <path d="M0,0.861328431 C0,0.585150979 0.0485172409,0.372839562 0.145551723,0.223531126 C0.242586204,0.0742226905 0.391572776,0 0.593370149,0 C0.703714671,0 0.796884947,0.020713309 0.873310336,0.0617083997 C0.949735724,0.103135018 1.011563,0.161391199 1.05879218,0.236476944 C1.10602135,0.311994216 1.13994048,0.402183416 1.16054958,0.507907597 C1.18115867,0.613631778 1.19146322,0.731007196 1.19146322,0.861328431 C1.19146322,1.13750588 1.14294598,1.3498173 1.04591149,1.49912574 C0.948877012,1.64843417 0.798173016,1.72265686 0.593370149,1.72265686 C0.484743053,1.72265686 0.392431488,1.70194355 0.316864812,1.66094846 C0.241298136,1.61952185 0.179900212,1.56126566 0.132671039,1.48617992 C0.0854418667,1.41066265 0.0515227337,1.32047345 0.0309136402,1.21474927 C0.00987519062,1.10945661 0,0.991649667 0,0.861328431 Z M0.205661579,0.861328431 C0.205661579,0.95324374 0.211672564,1.04084378 0.223265179,1.12326548 C0.23528715,1.20568719 0.2563256,1.27818377 0.286380528,1.34118676 C0.316435456,1.40375821 0.355936218,1.45381537 0.405312172,1.49092672 C0.454258768,1.52803806 0.516944761,1.54702526 0.592940793,1.54702526 C0.729046681,1.54702526 0.8286573,1.49135825 0.890913936,1.38045574 C0.953599929,1.26955323 0.984513569,1.09651079 0.984513569,0.861759959 C0.984513569,0.771139232 0.978502584,0.684402251 0.966480612,0.601117488 C0.954458641,0.517832724 0.933420192,0.444904616 0.903365264,0.382333161 C0.873310336,0.319761707 0.832950861,0.269704544 0.782286839,0.232593199 C0.731622818,0.195481853 0.668507469,0.176926181 0.592511437,0.176926181 C0.458122974,0.176926181 0.359800423,0.232593199 0.297973143,0.344790289 C0.236575219,0.455692797 0.205661579,0.628303706 0.205661579,0.861328431 Z" id="Shape"></path>
                                    <path d="M1.54353523,0.0453103634 C1.60364509,0.0310699635 1.6680485,0.0215763635 1.73760419,0.0168295635 C1.80715988,0.0120827636 1.87585686,0.00949359995 1.94369513,0.00949359995 C2.01625631,0.00949359995 2.09010556,0.0168295635 2.16524288,0.0310699635 C2.2403802,0.0453103634 2.30864782,0.0716335269 2.37004575,0.109607927 C2.43144367,0.147582326 2.48167834,0.200228653 2.52032039,0.266683853 C2.55896244,0.333139053 2.57828346,0.418149925 2.57828346,0.521284943 C2.57828346,0.622693851 2.56025051,0.708567778 2.52375524,0.778475196 C2.48725997,0.848382613 2.43917208,0.904912686 2.37949158,0.94849694 C2.31938173,0.992081194 2.25068475,1.02358269 2.17340065,1.04256989 C2.09611655,1.06155708 2.01625631,1.07105068 1.93424929,1.07105068 C1.92652088,1.07105068 1.91321084,1.07105068 1.89517789,1.07105068 C1.87714493,1.07105068 1.85825326,1.07061916 1.83850288,1.0697561 C1.8187525,1.06889305 1.79943147,1.06759847 1.7805398,1.06630388 C1.76164814,1.06457778 1.7483381,1.06328319 1.74018033,1.06155708 L1.74018033,1.69460759 L1.54353523,1.69460759 L1.54353523,0.0453103634 L1.54353523,0.0453103634 Z M1.94927676,0.180809926 C1.90805857,0.180809926 1.86855781,0.181672981 1.83034511,0.18339909 C1.79213242,0.185125199 1.76207749,0.189008944 1.74018033,0.195481853 L1.74018033,0.885493959 C1.74790874,0.88851465 1.76078942,0.890672286 1.77796367,0.89153534 C1.79556727,0.892398395 1.81360023,0.893261449 1.83249189,0.894124504 C1.85138356,0.894987559 1.86984588,0.895419086 1.88702012,0.895419086 C1.90462372,0.895419086 1.91707505,0.895419086 1.92523281,0.895419086 C1.97890233,0.895419086 2.03257184,0.890240759 2.085812,0.879884104 C2.13905216,0.86952745 2.18671069,0.850971777 2.2296463,0.823785559 C2.27258191,0.797030868 2.3069304,0.758624941 2.33312112,0.709430832 C2.35931185,0.660236724 2.37219253,0.597665269 2.37219253,0.521284943 C2.37219253,0.456124325 2.3597412,0.401751889 2.3352679,0.358167634 C2.3107946,0.31458338 2.27816354,0.279629671 2.23780407,0.253306508 C2.19744459,0.226983344 2.15193284,0.208427672 2.10126882,0.197207963 C2.0506048,0.186419781 1.99994078,0.180809926 1.94927676,0.180809926 Z" id="Shape"></path>
                                    <polygon id="Path" points="2.9810195 0.0284807998 3.95436981 0.0284807998 3.95436981 0.204543926 3.1776646 0.204543926 3.1776646 0.749562868 3.89511867 0.749562868 3.89511867 0.925625995 3.1776646 0.925625995 3.1776646 1.51811294 3.96596242 1.51811294 3.96596242 1.69417606 2.9810195 1.69417606"></polygon>
                                    <polygon id="Path" points="4.6138608 0.652037705 4.48677139 0.411677016 4.47732556 0.411677016 4.5013695 0.652037705 4.5013695 1.69417606 4.31417023 1.69417606 4.31417023 0.0284807998 4.44383578 0.0284807998 5.10847904 1.06587236 5.23084554 1.29415028 5.24286751 1.29415028 5.21667678 1.06587236 5.21667678 0.0284807998 5.40387605 0.0284807998 5.40387605 1.69417606 5.2742105 1.69417606"></polygon>
                                </g>
                            </g>
                        </g>
                    </g>
                    <path d="M52.8800601,123.155059 L197.11994,123.155059 L197.11994,43.8216088 C197.11994,41.0775026 195.096123,38.8449407 192.608741,38.8449407 L57.3912586,38.8449407 C54.9038769,38.8449407 52.8800601,41.0775026 52.8800601,43.8216088 L52.8800601,123.155059 Z M205,131 L45,131 L45,43.8216088 C45,36.7516941 50.5587031,31 57.3912586,31 L192.608741,31 C199.441025,31 205,36.7516941 205,43.8216088 L205,131 L205,131 Z" id="Fill-69" fill="#393880"></path>
                    <path d="M45,127 L45,139.879855 C45,145.469188 49.4321369,150 54.8998198,150 L197.099908,150 C202.567318,150 207,145.469188 207,139.879855 L207,127 L45,127" id="Fill-70" fill="#393880"></path>
                    <path d="M148.439044,162 L102.560956,162 C99.4896477,162 97,164.686436 97,167.999853 C97,171.313857 99.4896477,174 102.560956,174 L148.439044,174 C151.510352,174 154,171.313857 154,167.999853 C154,164.686436 151.510352,162 148.439044,162" id="Fill-71" fill="#292756"></path>
                    <path d="M50.7606648,121.07355 C49.9801504,124.383062 45.649715,125.611352 42.4705895,124.716985 C38.6932745,123.655793 38.0953777,119.249107 37.7573596,116.142947 C37.5598166,114.32968 37.5598166,112.524591 37.6016665,110.719774 C37.6525887,108.513433 37.7690659,106.312816 37.6675142,104.103748 C37.5510369,101.552308 37.9607558,99.2262999 38.2955546,96.70539 C38.642645,94.114697 38.6306461,91.5575326 38.9115961,88.9529376 C38.9832969,88.2760973 36.8662212,87.8751177 37.0066962,80 C37.6944385,81.24519 40.469991,81.8162655 40.469991,81.8162655 C40.469991,81.8162655 45.4951924,92.5751101 46.488468,95.6529209 C46.4796883,95.9901145 45.912813,104.031512 45.8978875,104.373885 C45.7752645,107.218086 46.8340951,110.028759 48.511601,112.379845 C49.0439428,113.12347 49.5136562,113.880997 49.896158,114.661149 C50.8803612,116.647238 51.3050055,118.76417 50.7606648,121.07355" id="Fill-72" fill="#E15B47"></path>
                    <path d="M51.7681648,121.838019 C51.0121092,125.346055 46.8173759,126.648024 43.7378741,125.700008 C40.0789282,124.57516 39.4997676,119.904135 39.1723419,116.611649 C38.9809893,114.689612 38.9809893,112.776243 39.0215277,110.863163 C39.4300302,109.83222 39.742998,109.029253 39.7546209,108.911365 C39.7894896,108.565791 42.3329205,103.224423 42.4689935,103.05597 C42.6081849,102.887806 43.6310001,103.152187 43.6310001,103.152187 C43.6310001,103.152187 42.6254775,112.410154 45.9482097,116.175059 C48.0080146,118.507393 49.8387632,116.729826 50.9307489,115.040965 C51.8841103,117.146191 52.2954476,119.390109 51.7681648,121.838019" id="Fill-73" fill="#DC4333"></path>
                    <path d="M109.136928,158 C109.136928,158 108.408079,160.934729 102.1095,162.286919 C95.8112067,163.639348 105.623357,166 105.623357,166 C105.623357,166 111.958822,164.950635 111.997995,164.819554 C112.037168,164.688474 111.488458,160.885215 111.566805,160.360652 C111.645151,159.83585 109.136928,158 109.136928,158" id="Fill-74" fill="#292756"></path>
                    <path d="M142.862825,158 C142.862825,158 143.591969,160.934729 149.890633,162.286919 C156.188726,163.639348 146.376443,166 146.376443,166 C146.376443,166 140.040893,164.950635 140.002005,164.819554 C139.962832,164.688474 140.511548,160.885215 140.432915,160.360652 C140.354568,159.83585 142.862825,158 142.862825,158" id="Fill-75" fill="#292756"></path>
                    <g id="Group-71" transform="translate(155.000000, 14.000000)">
                        <path d="M20.778663,3.37277286 C20.7724344,3.37277286 20.7667474,3.37277286 20.7605188,3.37277286 C19.9134311,3.37908761 19.158418,3.828808 18.7402903,4.57532188 L1.66502624,35.0802566 C1.24716932,35.8270451 1.25393952,36.71468 1.68262877,37.4551537 C2.10833912,38.1898617 2.86226892,38.6272271 3.70177407,38.6272271 C3.70773185,38.6272271 3.71396044,38.6272271 3.71991822,38.6272271 L38.3148425,38.3669494 C39.1616594,38.3606347 39.9169433,37.9109143 40.3348002,37.1644004 C40.7529279,36.417612 40.7464285,35.5297025 40.3177393,34.7895033 L22.7980791,4.54484632 C22.3720979,3.80986373 21.6181681,3.37277286 20.778663,3.37277286 Z M3.70123246,40 C2.37643916,40 1.18704992,39.3103189 0.514904177,38.1503259 C-0.161845301,36.9820962 -0.17213601,35.5810442 0.487823366,34.402656 L17.5628166,3.89799575 C18.2225052,2.71960753 19.4137901,2.01015852 20.7504989,2 C20.7599772,2 20.7694555,2 20.7789338,2 C22.1039979,2 23.2936579,2.68995564 23.9652621,3.84967415 L41.4849222,34.0943312 C42.1616717,35.2625609 42.1722332,36.6636128 41.5125447,37.8417265 C40.8528561,39.0201147 39.6613004,39.7295637 38.3248624,39.7397223 L3.72993812,40 C3.72045983,40 3.71071074,40 3.70123246,40 L3.70123246,40 Z" id="Fill-77" fill="#DC3F5B"></path>
                        <path d="M43.9053374,37.1248259 C44.4860945,39.4593835 42.2986755,41.5418766 39.9680375,40.8732059 L5.27724069,30.9207036 C2.94660268,30.2520328 2.22018064,27.3339032 3.96978973,25.6680164 L30.0130933,0.87334025 C31.7629742,-0.792546584 34.6768152,0.0430898283 35.2575724,2.37791667 L43.9053374,37.1248259" id="Fill-132" fill="#DC3F5B"></path>
                        <path d="M39.9312059,33.8542467 C40.3690638,35.7327157 38.643871,37.4268135 36.8252029,36.9038399 L9.76001124,29.1192448 C7.94188982,28.5962712 7.39415751,26.2483206 8.77442106,24.8928252 L29.3201224,4.71924056 C30.7006592,3.36401665 32.9738576,4.01759788 33.4117155,5.89606694 L39.9312059,33.8542467" id="Fill-133" fill="#FFFFFE"></path>
                        <path d="M26.6928248,28.4094792 C26.190258,29.0682521 25.2492488,29.1949478 24.5904758,28.6928248 C23.9317028,28.1904799 23.8050072,27.2492488 24.3073521,26.5904758 C24.8094751,25.9317028 25.7509281,25.8050072 26.4094792,26.3073521 C27.0682521,26.809697 27.1949478,27.7509281 26.6928248,28.4094792" id="Fill-134" fill="#DC3F5B"></path>
                        <path d="M28.1376796,10.26095 L26.0129369,22.0950896 C25.9438808,22.4797178 26.1574482,22.8580265 26.5064617,22.9689051 C26.8706728,23.0843797 27.2543476,22.8686547 27.3748626,22.4805795 L30.9249879,11.0500267 C31.184415,10.2141282 30.7484815,9.31302384 29.9635345,9.06397779 C29.1463258,8.80459073 28.299255,9.35984564 28.1376796,10.26095" id="Fill-135" fill="#DC3F5B"></path>
                    </g>
                    <path d="M36.8207994,123.315092 L48.8947441,171 L51,170.516531 C51,170.516531 49.3272275,124.734836 44.1525257,110.610486 C38.9778239,96.4861368 31.5180242,118.912132 36.8207994,123.315092" id="Fill-78" fill="#292756"></path>
                    <path d="M49.468552,171 C49.4312012,170.58974 45.6881211,129.79052 42,114.127576 L42.5191756,114 C46.2158341,129.700835 49.9623824,170.538764 50,170.949569 L49.468552,171" id="Fill-79" fill="#120F29"></path>
                    <path d="M26.1603881,114.093317 L24,171.545022 L26.1355871,172 C26.1355871,172 39.8179554,128.829005 37.7961297,115.336708 C35.774304,101.844679 26.1603881,114.093317 26.1603881,114.093317" id="Fill-80" fill="#393880"></path>
                    <path d="M26.4651574,172 L26,171.899116 C26.0872614,171.358137 34.6942105,117.776176 33.4084653,113.169881 L33.8582514,113 C35.1808876,117.738516 26.8212972,169.786878 26.4651574,172" id="Fill-81" fill="#120F29"></path>
                    <path d="M24.228465,172 L23.1990147,173.990436 C22.8541212,174.657066 22.9627273,175.425901 23.4842211,176.007956 L24.8437969,177.526718 C25.3757513,178.121038 26.4298148,178.162431 27.0269944,177.612314 L27.1737511,177.476893 C27.9733749,176.740764 28.214585,175.697254 27.8007743,174.767703 L26.6940999,172.282596 L24.228465,172" id="Fill-82" fill="#120F29"></path>
                    <path d="M49.0006628,171.427306 L49.3666012,173.296965 C49.4166898,173.552505 49.6542458,173.742048 49.9382432,173.752714 L56.4735872,173.999587 C56.8446317,174.013586 57.1048006,173.668942 56.9586683,173.356961 C56.9273022,173.290077 56.8623816,173.241413 56.7843309,173.226081 L52.5007847,172.395245 C52.2323488,172.343248 51.9909024,172.209923 51.8155924,172.016824 L50.8921145,171 L49.0315426,171.384642 C49.0103887,171.389086 48.9967724,171.407974 49.0006628,171.427306" id="Fill-83" fill="#120F29"></path>
                    <path d="M60.9828018,96 C62.3004919,95.2457547 63.0029549,94.4118136 64.8017292,94.2922699 C66.0075858,94.2117928 67.0318203,93.8292008 68.2187997,93.7859671 C69.6280159,93.7346597 70.5884681,91.814147 71.2185682,90.7557034 C71.3933259,90.4619228 72.1615733,89.4774451 71.9693684,89.1336593 C71.6970782,88.6471503 70.4583294,89.6326697 70.049036,89.8011768 C68.8680631,90.287165 65.7759103,91.6024062 64.4442053,91.4706216 C64.7462415,90.7872171 66.6645717,88.9888526 65.1649735,89.459735 C64.215962,89.7576827 63.2417809,90.8197726 62.481828,91.3872796 C60.8120484,92.6353264 58.7392678,93.3403478 60.9828018,96" id="Fill-84" fill="#9F5542"></path>
                    <path d="M42.260117,71.1390994 C41.8411862,72.345585 42.1239454,73.8438247 42.793879,74.901233 C43.6152272,76.197325 45.0846605,76.8315033 46.0780015,77.9475825 C47.4623277,79.5026261 48.1106669,81.8969293 47.1536552,83.8736029 C46.1646331,85.9161478 44.2346045,86.552193 42.1879664,86.5911291 C41.9377258,86.5959294 41.9369636,87.0047584 42.1879664,87 C45.3519226,86.9396871 48.3736101,84.9310113 47.9623008,81.1990132 C47.7862432,79.6037 46.9717544,78.1598642 45.8173448,77.1253908 C44.1152004,75.6004826 41.6559827,74.0694407 42.635605,71.2479072 C42.7214743,71.0004229 42.3452242,70.893482 42.260117,71.1390994" id="Fill-85" fill="#120F29"></path>
                    <path d="M33.2085977,68.8616901 C34.1010472,68.0145084 35.2663168,67.5505756 36.0966151,66.5558417 C36.9435947,65.5409369 37.8209773,64.400585 37.9692256,63.0314444 C38.3407881,59.5965731 35.2848815,57.7187366 32.2004552,58.0342883 C29.1440104,58.3465242 26.6089909,59.8665328 25.7851499,63.0259181 C25.1364625,65.5133054 25.0164648,68.0520872 23.5651916,70.2943832 C22.5659279,71.8378785 20.9701732,72.9027964 19.7314521,74.2476213 C18.5694112,75.5092755 17.7474535,76.9320212 16.9857638,78.4619772 C15.9098199,80.6224839 15.556553,83.8830004 16.7347372,86.0650597 C17.5144534,87.509358 18.5868996,88.7309464 19.9216727,89.6416806 C21.0769873,90.4300071 22.2401044,91.6239641 23.6286882,91.9248711 C26.7491676,92.6012901 28.9575565,88.5485786 30.2530479,86.2532302 C31.5845923,83.894053 33.1593609,80.7915886 33.0299463,77.9911365 C32.9118319,75.4385388 31.5759826,73.0218882 32.3341746,70.4137512 C32.5513006,69.6677008 32.9764047,69.298544 33.2085977,68.8616901" id="Fill-86" fill="#120F29"></path>
                    <path d="M36.8804579,62.2216277 C39.9038687,61.2536989 44.8430191,63.5544634 44.4211414,67.2087812 C44.0581882,70.3528924 41.2666028,73.1917634 43.4766886,76.2886382 C44.4772995,77.690809 46.2566552,78.673102 46.8030214,80.384104 C47.3485576,82.0920674 46.7745273,84.2630012 44.9110728,84.8301125 C42.8669716,85.4516421 40.2469036,84.2290243 38.3911951,83.3981082 C36.6679976,82.6268591 34.8991543,81.09762 34.3350831,79.2482241 C33.6711444,77.0717655 34.1173665,75.1411565 34.609511,72.9967412 C35.1240635,70.7542624 35.5210435,68.1388658 36.8804579,62.2216277" id="Fill-87" fill="#120F29"></path>
                    <path d="M37,80.057202 C39.1785227,79.6013446 42.6600457,81.9772633 44.1150843,83.3812396 C46.0691942,85.2673057 47.6429478,87.1806751 48.7918269,89.6775846 C49.6743785,91.5960399 50.2041699,93.6365568 50.8521554,95.6366542 C50.9885734,96.0577132 51.0789113,96.8131033 51.3043655,97.4271589 C51.4170926,97.7344543 51.5634035,98.0058808 51.7656875,98.1817459 C52.0731487,98.1656852 52.4446534,98.2781104 52.6682852,98.0744067 C54.31962,96.5705861 55.270641,95.3363183 56.576505,93.821523 C57.190386,93.1089615 57.8498265,91.939472 58.5311356,91.307482 C58.6394369,91.2071023 59.7247931,90.7421439 59.7352067,90.7383964 C60.1095752,90.6045569 61.2727731,92.0334274 61.4859913,92.430663 C62.8819328,94.4264775 61.1410412,96.6305462 59.7523891,98.0206032 C57.5199761,100.255455 55.62236,103.59823 52.7213945,104.804659 C51.8388429,105.17138 50.4944486,104.98106 49.6558944,104.57044 C47.7934241,103.658726 47.5609408,101.193402 46.754148,99.4989942 C46.1480771,98.2264483 45.7354387,96.9389124 45.380856,95.5732142 C44.4011977,91.801885 41.4843515,88.4111953 37,80.057202" id="Fill-88" fill="#E15B47"></path>
                    <path d="M37.9383768,82.073671 C37.2619246,83.8860285 34.263468,82.641116 33.4015497,81.698891 C32.2580171,80.4514666 32.4109084,79.3552603 32.228332,77.7792754 C32.1237774,76.88327 32.0486453,76.1877165 32.0163332,75.6539314 C31.8552981,72.9149229 32.8406854,74.383146 36.9585062,74.4730731 C36.4620034,75.4175588 36.3169931,76.7910821 36.558677,77.9254697 C36.563931,77.9691773 36.5747017,78.0153968 36.5854724,78.0591044 C36.837927,79.10884 38.3169273,81.0573441 37.9383768,82.073671" id="Fill-89" fill="#9F5542"></path>
                    <path d="M31,80 C31,80 36.5346983,86.8516068 36.3278857,80.2283869 C36.3278857,80.2283869 44.5016167,88.1773235 41.2250568,108.775902 C41.0202718,110.062095 40.1194495,111.150391 38.8724914,111.563407 C37.7005535,111.95158 35.978274,112.19013 33.565171,111.802804 L31,80" id="Fill-90" fill="#FFFFFE"></path>
                    <path d="M36.5968249,77.9640367 C34.0927421,78.2724763 32.7176554,76.5358757 32.0164699,75.0915143 C31.8540872,71.6278426 32.8477205,73.4845155 37,73.5982347 C36.4993424,74.7926043 36.3531186,76.5295226 36.5968249,77.9640367" id="Fill-91" fill="#7C3E31"></path>
                    <path d="M39.9997597,68.2652168 C40.0012027,68.5507832 39.9962964,68.8520461 39.9810001,69.1623965 C39.9997597,72.567714 37.3454324,77.0704106 33.3528302,75.7709044 C33.019488,75.6924218 32.6936497,75.5853 32.3833961,75.4492636 C31.4520583,75.0408788 30.6589637,74.371987 30.1859353,73.4285439 C29.9758287,73.1261794 29.7937171,72.8042632 29.6390232,72.472158 C29.3913976,71.9431579 29.2113063,71.3888231 29.0964403,70.8485326 C28.9518477,70.1730317 28.9579085,69.5652737 29.1965873,68.9602694 C29.7010739,67.688301 31.2552277,66.4416673 34.6587811,64.6406988 C35.6025291,64.1397872 36.6879836,63.5964675 37.9353471,63 C38.7523961,64.4716171 39.5426047,65.459396 39.8551671,66.9059537 C39.9466558,67.3168168 39.9968736,67.7615514 39.9997597,68.2652168" id="Fill-92" fill="#9F5542"></path>
                    <path d="M37.5687688,64.6406103 C38.9383524,61.974964 36.8315354,59.3793305 34.255797,58.4355132 C31.1398277,57.2938687 27.5918403,58.4800175 25.6073868,61.0208346 C23.4156645,63.8267781 23.3404706,67.5819664 21.4079037,70.5062263 C19.3402098,73.6350975 15.4331783,75.0025201 14.3135936,78.7723622 C13.2370166,82.3967511 15.0264098,86.0480054 18.2417127,87.9682043 C18.475896,88.1082301 18.689824,87.7486677 18.4564732,87.6091846 C14.5882873,85.2990302 13.1726439,80.4621697 15.777794,76.6858148 C16.863805,75.1116099 18.5838311,74.215282 19.9467556,72.9124449 C21.1479159,71.7640162 22.1137832,70.388724 22.737532,68.8628226 C24.0435754,65.6674662 24.5191561,61.8064445 27.6209744,59.6857048 C29.4328426,58.4463679 31.8601355,58.0588546 33.9636229,58.7706525 C36.3207163,59.5679312 38.4827494,61.9372438 37.2016782,64.4305716 C37.0790372,64.6693753 37.4458503,64.8802281 37.5687688,64.6406103" id="Fill-93" fill="#120F29"></path>
                    <path d="M16.2765233,80.1623768 C15.7926376,83.6521617 15.7611863,86.8324068 17.7121969,89.7867871 C19.4193311,92.3713579 21.9686894,93.879268 24.8093588,93.9998072 C25.0638048,94.0106323 25.0632892,93.5621212 24.8093588,93.5515886 C22.0934634,93.4360232 19.6531534,91.9857495 18.0292877,89.5091374 C16.1651548,86.6665191 16.1929969,83.6313892 16.6575478,80.2814531 C16.696733,79.9991222 16.3159663,79.8777053 16.2765233,80.1623768" id="Fill-94" fill="#120F29"></path>
                    <path d="M37.9817135,115.766139 C37.8388698,117.582076 36.8192901,119.332505 35.9508227,120.901985 C34.2609322,123.944564 31.5337847,125.982526 27.79276,125.999171 C25.7618692,126.010179 23.6263402,125.933396 22.1608371,124.402576 C20.9137338,123.102103 20.2553979,121.085619 20.0717823,119.370896 C19.7658514,116.48752 20.4621079,113.280369 21.6975214,110.635663 C21.9626805,110.064894 22.2452318,109.497079 22.5280682,108.92631 C23.0173296,107.927598 23.5040249,106.918417 23.8855119,105.878629 C24.0195171,105.510556 24.1364152,105.134965 24.2382021,104.756422 C24.544133,103.601192 24.7334509,102.413209 25.0627614,101.27194 C25.9893928,98.0621031 25.9252414,88.0016979 26.0940309,84.7094409 C26.137939,83.8645634 26.2807827,82.536707 32.2622596,80.0101286 C33.0460472,79.6780302 36.0149741,87.6175163 36.3180538,88.4052095 C36.9618488,90.0839572 37.3610131,91.8317019 37.3610131,93.6258921 C37.3581619,96.8083446 37.5300877,99.9907971 37.2213056,103.156873 C36.9384692,106.023872 36.8540744,108.728984 37.4106235,111.546584 C37.6757826,112.88518 38.0923391,114.404993 37.9817135,115.766139" id="Fill-95" fill="#E15B47"></path>
                    <path d="M31.913748,106.433817 C31.3720196,107.372078 30.402349,108.210236 29.4689497,108.815723 C28.9705127,109.139028 28.4325868,109.405248 27.8695051,109.57894 C27.4079244,109.727471 26.9466362,109.829197 26.4941232,109.895481 C24.683194,110.161971 23.0071118,109.86518 22,109.60383 C22.5019471,108.597391 23.0012616,107.5804 23.39264,106.532567 C23.5301197,106.161645 23.6500488,105.782607 23.7553524,105.398699 C24.1517034,105.213644 24.507688,104.992336 24.8329591,104.745866 C25.1582302,104.499397 25.4530802,104.227766 25.7274546,103.936927 C26.3180322,103.391772 26.7556272,102.696193 27.1057616,101.935952 C27.2806826,101.556102 27.4339578,101.16002 27.573485,100.758797 C28.3887103,98.5064826 26.6336505,95.8010002 28.9737303,94.1777108 C29.5587502,93.9071625 30.4362802,93.9071625 31.0213001,94.448259 C32.1860748,95.5253116 32.6850968,97.4632486 32.8886838,98.918257 C33.1402424,100.718214 32.9325603,102.545768 32.5932487,104.32354 C32.4566465,105.039952 32.294011,105.76421 31.9283735,106.408115 C31.9234009,106.416772 31.9187207,106.425159 31.913748,106.433817" id="Fill-96" fill="#DC4333"></path>
                    <path d="M28.7214582,72.037338 C25.9292959,74.1646477 23.6948174,78.1102816 23.1004536,81.7965884 C22.6620417,84.5151087 23.6588861,88.634271 26.0864954,89.975599 C26.3060756,90.0969861 26.499955,89.7322729 26.2796262,89.6106099 C23.6858346,88.177414 22.9702026,83.7415415 23.6618804,80.9805358 C24.4758244,77.7314985 26.3831782,74.3307274 28.914589,72.402603 C29.1157045,72.2492137 28.9248195,71.8825694 28.7214582,72.037338" id="Fill-97" fill="#2E2656"></path>
                    <path d="M21.2493947,80.1583268 C20.2633109,84.6854698 22.2939511,88.6411078 25.7076732,90.9665224 C25.9251502,91.1148298 26.1228799,90.7310263 25.9061723,90.5832982 C22.6458125,88.3621623 20.6846726,84.6101575 21.6286972,80.2765093 C21.688965,79.9990122 21.3101754,79.88054 21.2493947,80.1583268" id="Fill-98" fill="#2E2656"></path>
                    <path d="M40,67.2988923 C39.4832256,66.3955578 38.8404015,66.0034305 38.1531237,67.3272669 C36.8051819,69.9274937 31.5064164,71.5127482 29.6475493,72 C29.3966198,71.5532169 29.2141256,71.0850365 29.097727,70.6287176 C28.9512053,70.0582028 28.9573469,69.5449022 29.1992102,69.0339274 L33.0725323,67.5103061 L34.7342823,65.3857022 C35.690622,64.9626421 36.790559,64.5037649 38.0545652,64 C38.8825156,65.2428991 39.6832673,66.0771579 40,67.2988923" id="Fill-99" fill="#7C3E31"></path>
                    <path d="M28.1492151,77 C26.9776286,75.037185 28.8433173,71.9412527 30.5904301,70.7715921 C31.6480682,70.0634284 32.9616565,69.7445056 34.0380932,69.0786988 C35.1639847,68.3818856 36.3208215,67.5715669 37.269717,66.6621385 C38.6339168,65.3554408 39.8885064,62.2185358 38.1532511,60.6377638 C36.0732584,58.7430521 32.2869314,61.5419321 30.7480492,62.9134111 C29.3688104,64.1425928 28.1483475,65.6727026 27.4189619,67.3351432 C26.6554495,69.074823 26.9568055,70.6614087 28.1492151,77" id="Fill-100" fill="#120F29"></path>
                    <path d="M37.9720939,63.3169023 C38.898475,65.1885292 38.8499336,67.2463177 37.1243733,68.7283042 C35.8304224,69.8393205 34.0300031,70.2660309 32.5056266,71.0255592 C30.1554609,72.1969157 27.5763317,74.2068108 27.0055312,76.7405559 C26.9464627,77.0011279 27.378657,77.1123378 27.4377255,76.8506834 C27.8982842,74.8066947 29.7878911,73.1323233 31.5973754,72.0112953 C33.1948565,71.0215004 35.0952829,70.5680022 36.6793127,69.5749603 C39.1373807,68.033716 39.5467663,65.5072767 38.3592557,63.1074705 C38.2393642,62.8650276 37.8527872,63.0755417 37.9720939,63.3169023" id="Fill-101" fill="#120F29"></path>
                    <path d="M34.2109611,61.4106985 C35.6072374,61.2650868 37.4423434,61.5646449 38.2491772,62.6582036 C38.9808491,63.6497852 38.2887818,64.8374767 37.6629146,65.7207074 C37.5160599,65.928339 37.8988073,66.1175852 38.045662,65.9101988 C38.7649033,64.8950841 39.4419383,63.592423 38.6316355,62.4684672 C37.7591796,61.2579778 35.7581394,60.8736021 34.2109611,61.0349026 C33.9314168,61.064074 33.9279478,61.440115 34.2109611,61.4106985" id="Fill-102" fill="#2E2656"></path>
                    <path d="M52.6897255,99.0109655 C51.8476201,99.2576871 50.8681185,99.8749074 51.0146744,100.819054 C51.0569274,101.089088 51.5072322,101.043296 51.4649792,100.771875 C51.3494482,100.028657 52.2184419,99.5934949 52.8575556,99.4061641 C53.1355981,99.3245711 52.967177,98.9296501 52.6897255,99.0109655" id="Fill-103" fill="#FFFFFE"></path>
                    <path d="M32.0134436,74.2323909 C33.2347481,77.4266932 38.3584741,78.1421988 39.9783952,74.8552899 C40.0878493,74.6334354 39.7513415,74.4381835 39.6416328,74.6612927 C38.189202,77.607891 33.5022743,77.0404556 32.3896604,74.1299965 C32.3018425,73.9006131 31.9246076,74 32.0134436,74.2323909" id="Fill-104" fill="#FFFFFE"></path>
                    <path d="M37.4092333,110.103702 C36.5491487,111.734339 37.4734587,113.567551 37.5705996,115.269062 C37.710825,117.715697 36.7586839,120.040136 35.5739935,122.1267 C33.0796409,126.520053 27.6445694,127.718932 23.3101601,125.452875 C23.0760052,125.330407 22.8683432,125.689664 23.1033009,125.812403 C26.7943862,127.742285 31.698528,127.402037 34.6290779,124.187196 C36.0926134,122.581812 37.2098671,120.204693 37.7322334,118.089073 C38.0252616,116.903501 38.0739659,115.640538 37.8970785,114.43297 C37.6990503,113.081482 37.0774023,111.614587 37.7635433,110.313879 C37.8882475,110.077362 37.5342052,109.867185 37.4092333,110.103702" id="Fill-105" fill="#FFFFFE"></path>
                    <path d="M30.4154987,81 C31.264789,82.3727121 29.4311126,80.435693 30.5995973,81.4669939 C32.0997303,82.7913214 32.1427769,85.1300966 31.8704192,86.9744237 C31.3535895,90.4763347 31.3988019,93.8754961 30.4525892,97.2885205 C29.9696011,99.0311854 29.4018734,100.79315 28.826836,102.519233 C28.192508,104.425264 27.6448146,105.638688 25.499795,105.943946 C22.2431447,106.407678 18.5711895,103.893576 16.0874826,102.109866 C14.5399713,100.998649 12.7049413,100.063574 11.27926,98.8460731 C10.5948463,98.2616511 9.84735181,97.5902454 10.0271187,96.6641404 C10.1651927,95.9527765 10.6947469,95.3512296 11.0735027,94.7138019 C11.23865,94.4362694 11.5803154,94.317754 11.8789342,94.4387158 C14.8745976,95.6513235 17.7568239,97.1884892 20.746802,98.4092516 C22.1619247,95.5966868 22.2745497,92.6229302 23.2835726,89.7212071 C24.1515434,87.2250456 25.3075744,84.1197261 27.4206475,82.4493665 C28.1343003,81.8847877 29.7540974,82.3694502 29.4034978,81.3397802 C29.2353725,80.8461475 31.0758171,82.1280704 30.4154987,81" id="Fill-106" fill="#E15B47"></path>
                    <path d="M29.1668081,83.4230834 C31.4810258,84.1479009 32.9645233,85.5249432 33.3226419,87.6750134 C33.65206,89.6532997 33.5359824,91.9114275 32.3882809,93.6816335 C32.233617,93.9201915 32.6558334,94.1343673 32.8101784,93.8960864 C34.0988312,91.9089339 34.2554085,89.1977951 33.6868195,87.0014541 C33.1603246,84.9669225 31.4880415,83.6998772 29.2965982,83.0135726 C29.0003451,82.9207539 28.8724684,83.3310959 29.1668081,83.4230834" id="Fill-107" fill="#FFFFFE"></path>
                    <path d="M23.6367149,101.874945 C22.6545164,98.5783455 18.2326451,98.4860009 16.0612743,96.3544224 C15.8859524,96.1819778 16.1248254,95.8779039 16.3021256,96.0521341 C18.533091,98.2423846 22.9680682,98.3033525 23.9905734,101.734898 C24.0617902,101.974688 23.7084262,102.116266 23.6367149,101.874945" id="Fill-108" fill="#FFFFFE"></path>
                    <path d="M23.2366589,99.4301807 C23.7325501,99.4546996 24.2295415,99.4075192 24.6616242,99.0460505 C24.8907298,98.853614 25.138813,99.3142729 24.9075071,99.508567 C24.3739358,99.955852 23.7881075,100.024208 23.1734004,99.993745 C22.9024892,99.9799995 22.968498,99.4168067 23.2366589,99.4301807" id="Fill-109" fill="#FFFFFE"></path>
                    <polyline id="Fill-110" fill="#DC3F5B" points="177 68 178.699687 62 183 66.4851612 180 67.2427085 177 68"></polyline>
                    <polyline id="Fill-111" fill="#DC3F5B" points="174 133 175.699687 127 180 131.485161 177 132.242453 174 133"></polyline>
                    <polyline id="Fill-112" fill="#DC3F5B" points="49 20 50.6996873 14 55 18.4851612 49 20"></polyline>
                    <polyline id="Fill-113" fill="#DC3F5B" points="152.111717 25 150 19 156 20.0777234 152.111717 25"></polyline>
                    <path d="M21.9693942,48.043621 C21.3845499,47.9109406 20.76906,48.0809998 20.1236968,48.5529425 C19.5362773,48.9826558 19.1832075,49.5210815 19.0634574,50.1687901 C18.8968373,51.0707316 19.0590794,51.9352942 19.5414279,52.7667581 C19.5488962,52.7815955 19.5496687,52.7981449 19.5581671,52.8126969 C19.7438442,53.1239965 20.1218941,53.2098821 20.4028563,53.0044415 C20.6838185,52.7987155 20.7613342,52.3798449 20.5759146,52.0685453 C20.575142,52.067404 20.5741119,52.0668333 20.5733393,52.065692 C20.1893663,51.4182686 20.0464387,50.8256295 20.1458442,50.2877745 C20.2055905,49.9639202 20.3675751,49.7054074 20.631798,49.5122361 C20.9547371,49.2759794 21.2622245,49.1909498 21.5545179,49.2574327 C21.8952264,49.3350436 22.2019412,49.6012604 22.4731174,50.0563685 C22.6866074,50.4147482 22.7527919,50.8090801 22.673216,51.2407908 C22.5333787,51.9977824 22.4677093,52.5584641 22.4759502,52.9259746 C22.483676,53.4313015 22.6989687,54.0390633 23.1200257,54.7486895 C23.1223434,54.7529695 23.1223434,54.7581055 23.1249187,54.7626709 C23.270164,55.006061 23.5658052,55.0733998 23.7857335,54.9124713 C24.0056617,54.7518282 24.0661806,54.4239792 23.9209352,54.1803038 C23.9196476,54.1783064 23.9178449,54.1774504 23.9165573,54.1754531 C23.5709558,53.5925153 23.4414196,53.058655 23.5307815,52.5747282 C23.6505317,51.9267342 23.7453017,51.4139886 23.8153491,51.0359208 C23.9350992,50.3882122 23.8305432,49.7884396 23.5009084,49.2348913 C23.11333,48.5843293 22.602396,48.1877147 21.9693942,48.043621" id="Fill-114" fill="#A82F50"></path>
                    <path d="M24.4491795,55.1654759 C23.9883095,55.4694726 23.8613682,56.0899977 24.1653806,56.5508438 C24.4697974,57.0116898 25.0899505,57.1386246 25.5508205,56.8346279 C26.0116905,56.530227 26.1386318,55.9101061 25.8346194,55.44926 C25.5306069,54.9880097 24.9100495,54.8614792 24.4491795,55.1654759" id="Fill-115" fill="#A82F50"></path>
                    <path d="M35.0850103,40.7716718 C34.510562,40.2694216 33.6893115,40.0122307 32.622967,40.0003417 C31.6522689,39.9896659 30.8734331,40.2291446 30.2838977,40.7187778 C29.4632165,41.4003337 29.0439091,42.2665332 29.0131656,43.3147075 C29.0114576,43.3326623 29.0003558,43.3479482 29.0000711,43.3661456 C28.9940932,43.7618799 29.3655774,44.0870081 29.8298615,44.0921033 C30.2944302,44.0971986 30.6755928,43.7805627 30.6815708,43.3848284 C30.6815708,43.3833726 30.6807168,43.3821594 30.6807168,43.380461 C30.6952345,42.5589059 30.9460219,41.9443167 31.4356409,41.5376639 C31.7302663,41.2928473 32.0957726,41.1729866 32.5324444,41.1778393 C33.0659013,41.1836625 33.4760996,41.3122579 33.7633237,41.563383 C34.0978018,41.8564836 34.2614826,42.2924949 34.2529427,42.8711745 C34.2458261,43.3265965 34.0459933,43.7165076 33.6528748,44.0428489 C32.9645616,44.6147347 32.4977156,45.0636056 32.2500595,45.3916453 C31.9059029,45.8405162 31.7265657,46.5162489 31.7109093,47.4166597 C31.7106246,47.4219976 31.706924,47.4266076 31.706924,47.4321882 C31.7023694,47.7417878 31.9930095,47.9960671 32.3562385,48 C32.7191828,48.004074 33.0175088,47.7563458 33.0220634,47.4467462 C33.022348,47.4440772 33.0203554,47.4421361 33.02064,47.4394672 C33.0334498,46.6994368 33.2589023,46.1455058 33.6992747,45.779858 C34.2888101,45.2902247 34.7556561,44.9024973 35.0995281,44.6169184 C35.6890635,44.1272851 35.9890975,43.5316213 35.99963,42.8284711 C36.0121551,42.0015781 35.7067125,41.3161401 35.0850103,40.7716718" id="Fill-116" fill="#A82F50"></path>
                    <path d="M32.0131248,51.000085 C31.4605871,50.9929555 31.0072146,51.4349857 31.000085,51.9868752 C30.9929555,52.5394128 31.4349857,52.9927854 31.9871992,52.9999149 C32.5394128,53.0070444 32.9927854,52.5653384 32.9999149,52.0131248 C33.0070444,51.4605871 32.5653384,51.0072146 32.0131248,51.000085" id="Fill-117" fill="#A82F50"></path>
                    <path d="M248.624189,96.3586812 C245.136295,100.067041 244.195787,105.094244 245.673809,109.504367 C246.427971,111.778215 247.822733,113.884036 249.842517,115.574195 C253.464365,118.605102 258.271406,119.601781 262.66639,118.655858 C262.778821,118.631014 262.891534,118.605904 263,118.577855 C262.988389,118.270116 262.97253,117.962911 262.956954,117.655707 C262.362799,117.806103 261.759866,117.9183 261.152402,117.991228 C257.41869,118.439479 253.504013,117.433451 250.476602,114.899948 C248.945338,113.618504 247.790448,112.070727 247.038551,110.394459 C245.053601,106.018529 245.77038,100.751173 249.338987,96.9567952 C250.6941,95.5161392 252.319669,94.4353133 254.082591,93.721263 C253.878403,93.476835 253.664587,93.2382839 253.446806,93 C251.659246,93.7634702 250.008755,94.8865034 248.624189,96.3586812" id="Fill-120" fill="#FFFFFE"></path>
                    <path d="M239.51303,84 C228.57042,96.8175569 229.656778,115.997489 242.276977,127.532211 C248.030129,132.794127 255.240295,135.601525 262.548769,136 C263.128711,134.027861 263.617228,132.033059 264,130.027466 C257.705459,129.940595 251.426339,127.656313 246.473705,123.128756 C235.895968,113.457719 235.318505,97.1607253 245.188251,86.7998444 C245.618112,86.3490311 246.062293,85.914405 246.515562,85.5019015 C244.327701,84.6121456 241.980397,84.0822849 239.51303,84" id="Fill-121" fill="#FFFFFE"></path>
                    <path d="M80,14.5 C80,15.8808892 78.8806441,17 77.4998421,17 C76.1193559,17 75,15.8808892 75,14.5 C75,13.1194266 76.1193559,12 77.4998421,12 C78.8806441,12 80,13.1194266 80,14.5" id="Fill-122" fill="#FFFFFE"></path>
                    <path d="M24,160.5 C24,161.880889 22.8808892,163 21.5,163 C20.1191108,163 19,161.880889 19,160.5 C19,159.119427 20.1191108,158 21.5,158 C22.8808892,158 24,159.119427 24,160.5" id="Fill-123" fill="#FFFFFE"></path>
                    <path d="M77.9986086,18.7348765 C77.062834,18.7348765 76.2037125,18.3875344 75.5487462,17.8147867 C74.7637479,17.1279449 74.2653765,16.1203238 74.2653765,14.9986086 C74.2653765,14.4311735 74.3926256,13.8903014 74.6233438,13.4076147 C75.2198716,12.1429656 76.5085539,11.2651235 77.9986086,11.2651235 C80.0591342,11.2651235 81.7348765,12.9411188 81.7348765,14.9986086 C81.7348765,17.0588812 80.0591342,18.7348765 77.9986086,18.7348765 Z M77.9986086,11 C76.5429592,11 75.2649021,11.7849983 74.5674351,12.951744 C74.206938,13.5508016 74,14.2507985 74,14.9986086 C74,16.3404168 74.6655915,17.5309427 75.6813079,18.2575025 C76.3362742,18.7242513 77.1341745,19 77.9986086,19 C80.2048509,19 82,17.2048509 82,14.9986086 C82,12.7951491 80.2048509,11 77.9986086,11 L77.9986086,11 Z" id="Fill-125" fill="#FFFFFE"></path>
                    <path d="M89,157.499842 C89,158.880644 87.8806441,160 86.5001579,160 C85.1193559,160 84,158.880644 84,157.499842 C84,156.119356 85.1193559,155 86.5001579,155 C87.8806441,155 89,156.119356 89,157.499842" id="Fill-126" fill="#FFFFFE"></path>
                    <path d="M87.9986086,161.735129 C87.062581,161.735129 86.2034595,161.387534 85.5484932,160.814787 C84.7634949,160.127945 84.2651235,159.120577 84.2651235,157.998609 C84.2651235,157.431174 84.3923726,156.890301 84.6228378,156.407615 C85.2196186,155.142966 86.5083009,154.265123 87.9986086,154.265123 C90.0588812,154.265123 91.7346235,155.940866 91.7346235,157.998609 C91.7346235,160.059134 90.0588812,161.735129 87.9986086,161.735129 Z M87.9986086,154 C86.5427063,154 85.2646491,154.784998 84.5674351,155.951491 C84.206685,156.550802 84,157.251051 84,157.998609 C84,159.340417 84.6653385,160.531196 85.6810549,161.257755 C86.3360213,161.724504 87.1341745,162 87.9986086,162 C90.2045979,162 92,160.204851 92,157.998609 C92,155.795149 90.2045979,154 87.9986086,154 L87.9986086,154 Z" id="Fill-127" fill="#FFFFFE"></path>
                    <path d="M41.049455,86.3534739 C42.4260124,88.0264195 43.0812218,90.085267 43.5269495,92.1945299 C43.9852873,94.3626547 44.3738836,96.5648297 44.3301343,98.7891769 C44.2868998,101.006133 43.7343724,103.25582 43.8530101,105.466442 C43.9435968,107.153905 44.6415261,108.585068 45.6207373,109.914344 C45.7720583,110.119437 46.1145892,109.91804 45.9614668,109.710307 C44.4503161,107.659114 44.1191085,105.756528 44.3772291,103.237079 C44.612703,100.936713 44.8785441,98.6162865 44.6302027,96.3045703 C44.2562753,92.8216865 43.5918013,88.81802 41.3284208,86.0673469 C41.1644898,85.868061 40.8865533,86.1555078 41.049455,86.3534739" id="Fill-198" fill="#FFFFFE"></path>
                    <path d="M132,138.00015 C132,141.314031 129.313732,144 125.99985,144 C122.685969,144 120,141.314031 120,138.00015 C120,134.686567 122.685969,132 125.99985,132 C129.313732,132 132,134.686567 132,138.00015" id="Fill-202" fill="#4B4E8F"></path>
                </g>
            </g>
        </g>
    </g>
</svg>